<svg width="341" height="203" viewBox="0 0 341 203" fill="none" xmlns="http://www.w3.org/2000/svg">
<path d="M236.83 66.5601L214.055 68.248L208.971 165.182L231.746 163.494L236.83 66.5601Z" fill="#C2A587"/>
<path d="M234.75 66.581L216.037 68.0044L211.051 165.162L229.763 163.738L234.75 66.581Z" fill="#FFDDBA"/>
<path d="M214.328 72.8545C214.088 72.8771 213.873 73.1189 213.851 73.3906L212.387 91.2091C212.364 91.4809 212.542 91.6852 212.782 91.6621C213.022 91.6389 213.237 91.3978 213.259 91.126L214.723 73.3075C214.746 73.0352 214.568 72.8315 214.328 72.8545Z" fill="#856F59"/>
<path d="M216.9 72.8286C216.661 72.8517 216.446 73.093 216.423 73.3647L214.959 91.1831C214.937 91.4549 215.115 91.6591 215.355 91.6361C215.595 91.613 215.81 91.3719 215.832 91.1L217.296 73.2816C217.318 73.0097 217.14 72.8054 216.9 72.8286Z" fill="#856F59"/>
<path d="M219.473 72.803C219.233 72.8261 219.019 73.0674 218.996 73.3391L217.532 91.1575C217.509 91.4293 217.688 91.6337 217.928 91.6105C218.167 91.5879 218.382 91.3463 218.405 91.0744L219.869 73.256C219.891 72.9841 219.713 72.7804 219.473 72.803Z" fill="#856F59"/>
<path d="M222.045 72.7777C221.805 72.8008 221.59 73.0419 221.568 73.3138L220.104 91.1322C220.081 91.404 220.26 91.6084 220.5 91.5852C220.74 91.5621 220.955 91.321 220.977 91.0491L222.441 73.2307C222.464 72.9584 222.285 72.7547 222.045 72.7777Z" fill="#856F59"/>
<path d="M224.618 72.7517C224.378 72.7743 224.163 73.016 224.141 73.2878L222.677 91.1063C222.655 91.3781 222.833 91.5824 223.073 91.5593C223.313 91.5361 223.527 91.2949 223.55 91.0232L225.014 73.2047C225.036 72.9329 224.858 72.7286 224.618 72.7517Z" fill="#856F59"/>
<path d="M227.191 72.7261C226.951 72.7493 226.736 72.9904 226.714 73.2622L225.25 91.0807C225.228 91.3525 225.406 91.5568 225.646 91.5337C225.885 91.5111 226.1 91.2693 226.123 90.9976L227.587 73.1791C227.609 72.9073 227.431 72.7035 227.191 72.7261Z" fill="#856F59"/>
<path d="M229.763 72.7007C229.523 72.7239 229.309 72.9651 229.286 73.2368L227.822 91.0553C227.8 91.3271 227.978 91.5308 228.218 91.5083C228.457 91.4851 228.672 91.244 228.694 90.9722L230.159 73.1537C230.181 72.8814 230.003 72.6777 229.763 72.7007Z" fill="#856F59"/>
<path d="M232.336 72.675C232.096 72.6976 231.881 72.9394 231.859 73.2111L230.395 91.0296C230.373 91.3014 230.55 91.5057 230.79 91.4826C231.03 91.46 231.245 91.2183 231.267 90.9465L232.731 73.128C232.753 72.8562 232.576 72.6519 232.336 72.675Z" fill="#856F59"/>
<path d="M214.56 96.1742C214.32 96.1973 214.105 96.4384 214.083 96.7103L212.619 114.529C212.597 114.801 212.775 115.005 213.015 114.982C213.255 114.959 213.47 114.717 213.492 114.446L214.956 96.6271C214.978 96.3547 214.8 96.151 214.56 96.1742Z" fill="#C2A587"/>
<path d="M217.133 96.1482C216.894 96.1708 216.678 96.4125 216.656 96.6843L215.192 114.503C215.17 114.775 215.348 114.979 215.588 114.956C215.828 114.933 216.043 114.692 216.065 114.42L217.529 96.6012C217.551 96.3294 217.373 96.1251 217.133 96.1482Z" fill="#C2A587"/>
<path d="M219.705 96.1224C219.465 96.1455 219.25 96.3866 219.228 96.6585L217.764 114.477C217.742 114.749 217.92 114.952 218.16 114.93C218.4 114.907 218.615 114.666 218.637 114.394L220.101 96.5754C220.123 96.3037 219.945 96.0999 219.705 96.1224Z" fill="#C2A587"/>
<path d="M222.278 96.0973C222.038 96.1198 221.823 96.3615 221.801 96.6334L220.337 114.452C220.315 114.724 220.492 114.928 220.732 114.905C220.972 114.882 221.187 114.641 221.209 114.369L222.673 96.5502C222.696 96.2778 222.518 96.0741 222.278 96.0973Z" fill="#C2A587"/>
<path d="M224.851 96.0716C224.611 96.0947 224.396 96.3359 224.374 96.6077L222.91 114.426C222.887 114.698 223.066 114.902 223.305 114.879C223.545 114.856 223.76 114.615 223.782 114.343L225.246 96.5246C225.268 96.2527 225.09 96.049 224.851 96.0716Z" fill="#C2A587"/>
<path d="M227.423 96.0462C227.183 96.0688 226.968 96.3106 226.946 96.5823L225.482 114.401C225.459 114.673 225.637 114.877 225.877 114.854C226.117 114.831 226.332 114.589 226.354 114.318L227.818 96.4992C227.841 96.2269 227.663 96.0232 227.423 96.0462Z" fill="#C2A587"/>
<path d="M229.995 96.0203C229.755 96.0435 229.54 96.2846 229.518 96.5565L228.054 114.375C228.031 114.647 228.21 114.851 228.45 114.828C228.689 114.805 228.905 114.564 228.927 114.292L230.391 96.4733C230.413 96.2009 230.235 95.9972 229.995 96.0203Z" fill="#C2A587"/>
<path d="M232.568 95.9947C232.328 96.0178 232.113 96.2589 232.091 96.5308L230.627 114.349C230.605 114.621 230.783 114.825 231.023 114.802C231.263 114.779 231.478 114.538 231.5 114.266L232.964 96.4477C232.986 96.1758 232.808 95.9721 232.568 95.9947Z" fill="#C2A587"/>
<path d="M214.792 119.494C214.552 119.517 214.337 119.758 214.315 120.03L212.851 137.848C212.828 138.12 213.006 138.324 213.246 138.301C213.486 138.278 213.701 138.037 213.723 137.765L215.187 119.947C215.209 119.675 215.032 119.471 214.792 119.494Z" fill="#856F59"/>
<path d="M217.364 119.468C217.124 119.491 216.909 119.732 216.887 120.004L215.423 137.822C215.401 138.094 215.579 138.299 215.819 138.275C216.058 138.253 216.273 138.011 216.296 137.739L217.76 119.921C217.782 119.649 217.604 119.445 217.364 119.468Z" fill="#856F59"/>
<path d="M219.937 119.442C219.697 119.465 219.482 119.707 219.46 119.979L217.996 137.797C217.974 138.069 218.151 138.273 218.391 138.25C218.631 138.227 218.846 137.986 218.868 137.714L220.332 119.895C220.355 119.623 220.177 119.419 219.937 119.442Z" fill="#856F59"/>
<path d="M222.509 119.417C222.27 119.44 222.055 119.681 222.032 119.953L220.568 137.771C220.546 138.043 220.724 138.248 220.964 138.224C221.204 138.201 221.419 137.96 221.441 137.688L222.905 119.87C222.927 119.597 222.749 119.394 222.509 119.417Z" fill="#856F59"/>
<path d="M225.082 119.391C224.842 119.414 224.627 119.655 224.605 119.927L223.141 137.746C223.119 138.017 223.297 138.222 223.536 138.198C223.776 138.175 223.991 137.934 224.013 137.662L225.478 119.844C225.5 119.572 225.322 119.368 225.082 119.391Z" fill="#856F59"/>
<path d="M227.654 119.366C227.415 119.389 227.2 119.63 227.178 119.902L225.713 137.72C225.691 137.992 225.869 138.197 226.109 138.173C226.349 138.15 226.564 137.909 226.586 137.637L228.05 119.819C228.072 119.546 227.894 119.343 227.654 119.366Z" fill="#856F59"/>
<path d="M230.227 119.34C229.988 119.363 229.773 119.604 229.75 119.876L228.286 137.695C228.264 137.966 228.442 138.171 228.682 138.148C228.922 138.124 229.137 137.883 229.159 137.611L230.623 119.793C230.645 119.521 230.467 119.317 230.227 119.34Z" fill="#856F59"/>
<path d="M232.799 119.314C232.56 119.337 232.345 119.578 232.322 119.85L230.858 137.669C230.836 137.94 231.014 138.144 231.254 138.122C231.494 138.099 231.709 137.857 231.731 137.585L233.195 119.767C233.218 119.495 233.04 119.292 232.799 119.314Z" fill="#856F59"/>
<path d="M215.024 142.813C214.784 142.836 214.569 143.077 214.547 143.349L213.083 161.168C213.061 161.439 213.238 161.644 213.478 161.621C213.718 161.597 213.933 161.356 213.955 161.084L215.419 143.266C215.442 142.994 215.264 142.79 215.024 142.813Z" fill="#C2A587"/>
<path d="M217.596 142.787C217.357 142.81 217.142 143.051 217.12 143.323L215.655 161.142C215.633 161.414 215.811 161.617 216.051 161.595C216.291 161.572 216.506 161.33 216.528 161.059L217.992 143.24C218.014 142.968 217.836 142.765 217.596 142.787Z" fill="#C2A587"/>
<path d="M220.169 142.762C219.929 142.785 219.715 143.026 219.692 143.298L218.228 161.117C218.205 161.388 218.384 161.592 218.624 161.57C218.863 161.546 219.078 161.305 219.101 161.033L220.565 143.215C220.587 142.943 220.409 142.739 220.169 142.762Z" fill="#C2A587"/>
<path d="M222.741 142.736C222.501 142.759 222.287 143 222.264 143.272L220.8 161.091C220.778 161.362 220.955 161.567 221.196 161.544C221.436 161.52 221.65 161.279 221.673 161.007L223.137 143.189C223.159 142.917 222.982 142.713 222.741 142.736Z" fill="#C2A587"/>
<path d="M225.314 142.71C225.075 142.733 224.859 142.975 224.837 143.246L223.373 161.065C223.351 161.337 223.529 161.541 223.769 161.518C224.009 161.495 224.224 161.254 224.246 160.982L225.71 143.163C225.732 142.891 225.554 142.688 225.314 142.71Z" fill="#C2A587"/>
<path d="M227.886 142.685C227.647 142.708 227.432 142.949 227.409 143.221L225.945 161.04C225.923 161.312 226.101 161.515 226.341 161.493C226.581 161.47 226.796 161.228 226.818 160.957L228.282 143.138C228.304 142.866 228.126 142.662 227.886 142.685Z" fill="#C2A587"/>
<path d="M230.459 142.659C230.219 142.682 230.004 142.923 229.982 143.195L228.518 161.014C228.496 161.286 228.674 161.49 228.914 161.467C229.154 161.444 229.369 161.203 229.391 160.931L230.855 143.112C230.878 142.841 230.699 142.637 230.459 142.659Z" fill="#C2A587"/>
<path d="M233.032 142.634C232.792 142.657 232.577 142.898 232.555 143.17L231.09 160.988C231.068 161.26 231.246 161.464 231.486 161.441C231.726 161.418 231.941 161.177 231.963 160.905L233.427 143.087C233.45 142.815 233.272 142.611 233.032 142.634Z" fill="#C2A587"/>
<path opacity="0.2" d="M208.916 82.3402C210.884 79.6748 214.749 76.7904 222.345 76.2704C229.94 75.7503 233.51 78.1267 235.192 80.5419L236.038 65.5134L209.763 67.3119L208.916 82.3402Z" fill="#382F26"/>
<path d="M231.639 34.2594L213.027 35.5383L208.704 41.2541L235.352 39.4222L231.639 34.2594Z" fill="#856F59"/>
<g opacity="0.2">
<path d="M212.872 35.0519L208.704 40.615L211.606 40.35L214.899 34.8669L212.872 35.0519Z" fill="#382F26"/>
<path d="M231.759 34.8705L229.614 35.0644L232.201 40.2586L235.273 39.9807L231.759 34.8705Z" fill="#382F26"/>
</g>
<path d="M231.477 24.8236L213.17 25.9521L212.606 35.1628L230.913 34.0342L231.477 24.8236Z" fill="#C2A587"/>
<path d="M214.901 24.9895L213.319 25.166L212.606 35.1628L214.188 34.9862L214.901 24.9895Z" fill="#856F59"/>
<path d="M231.478 24.8239L229.896 25.0005L229.182 34.9973L230.764 34.8207L231.478 24.8239Z" fill="#856F59"/>
<path d="M234.299 73.7758L208.356 75.5523C206.455 75.6823 205.006 74.1471 205.119 72.1237L206.673 44.5109C206.787 42.487 208.421 40.7405 210.322 40.6105L236.265 38.8341C238.166 38.704 239.615 40.2386 239.502 42.2626L237.948 69.8749C237.834 71.8995 236.2 73.6452 234.299 73.7758Z" fill="#FFDDBA"/>
<path d="M221.568 9.75139C221.383 9.76412 221.241 9.61019 221.252 9.40922L221.67 1.86846C221.681 1.66749 221.842 1.49207 222.027 1.47877C222.211 1.46603 222.354 1.61997 222.343 1.82108L221.925 9.36184C221.913 9.56338 221.753 9.7388 221.568 9.75139Z" fill="#856F59"/>
<path d="M221.568 9.75139C221.383 9.76412 221.241 9.61019 221.252 9.40922L221.67 1.86846C221.681 1.66749 221.842 1.49207 222.027 1.47877C222.211 1.46603 222.354 1.61997 222.343 1.82108L221.925 9.36184C221.913 9.56338 221.753 9.7388 221.568 9.75139Z" fill="#382F26"/>
<path d="M212.604 25.8413L222.74 4.62279L230.562 24.6089L212.604 25.8413Z" fill="#856F59"/>
<g opacity="0.2">
<path d="M214.388 25.0229L221.789 4.55568L212.604 25.2016L214.388 25.0229Z" fill="#382F26"/>
<path d="M223.046 4.74072L228.095 24.9821L230.169 24.7905L223.046 4.74072Z" fill="#382F26"/>
</g>
<path d="M220.426 72.5773C227.986 72.6835 234.959 65.8828 236.001 57.3875C237.043 48.8922 231.759 41.9194 224.199 41.8132C216.64 41.7069 209.667 48.5076 208.625 57.0029C207.583 65.4982 212.867 72.471 220.426 72.5773Z" fill="#C2A587"/>
<path d="M216.68 41.0803L210.33 41.6712C208.655 41.8271 207.172 43.4498 207.017 45.296L206.431 52.294C208.373 47.3257 212.16 43.1816 216.68 41.0803Z" fill="#E0C6A8"/>
<path d="M237.103 51.5622L237.717 44.2988C237.878 42.3824 236.587 40.9604 234.832 41.1225L228.179 41.7365C232.617 43.072 235.916 46.7027 237.103 51.5622Z" fill="#E0C6A8"/>
<path d="M227.94 73.306L234.29 72.7152C235.966 72.5593 237.449 70.9366 237.603 69.0904L238.19 62.093C236.248 67.0607 232.46 71.2046 227.94 73.306Z" fill="#E0C6A8"/>
<path d="M207.518 62.8235L206.904 70.0869C206.742 72.0034 208.034 73.4253 209.789 73.2631L216.442 72.6492C212.003 71.3143 208.705 67.6836 207.518 62.8235Z" fill="#E0C6A8"/>
<path d="M234.728 56.3428C234.317 63.6426 228.425 69.9403 221.566 70.4098C214.708 70.8793 209.482 65.3427 209.893 58.0429C210.303 50.7436 216.196 44.4454 223.054 43.9759C229.913 43.5064 235.139 49.043 234.728 56.3428Z" fill="#856F59"/>
<path d="M231.424 63.5936C235.542 57.9782 234.801 50.5594 229.767 47.0231C224.734 43.4869 217.315 45.1724 213.197 50.7878C209.079 56.4032 209.82 63.822 214.854 67.3583C219.887 70.8945 227.306 69.209 231.424 63.5936Z" fill="white"/>
<path d="M222.093 57.2885C221.835 57.5639 221.439 57.5904 221.211 57.3483L214.719 50.4557C214.491 50.2128 214.515 49.7892 214.773 49.5138C215.03 49.2384 215.427 49.2113 215.655 49.454L222.145 56.3471C222.375 56.5889 222.351 57.0132 222.093 57.2885Z" fill="#856F59"/>
<path d="M222.182 57.4711L222.134 57.3191C222.021 56.9496 222.225 56.5097 222.589 56.3415L228.524 53.5993C228.888 53.4313 229.279 53.5959 229.393 53.9649L229.44 54.1169C229.554 54.4858 229.349 54.9263 228.985 55.0944L223.051 57.8367C222.687 58.0049 222.296 57.8401 222.182 57.4711Z" fill="#856F59"/>
<path d="M223.816 57.0902C223.767 57.9743 223.052 58.7369 222.222 58.7933C221.39 58.8502 220.757 58.1793 220.807 57.2954C220.856 56.4113 221.57 55.6487 222.401 55.5923C223.232 55.5354 223.865 56.2062 223.816 57.0902Z" fill="#C2A587"/>
<path d="M223.375 57.1202C223.34 57.7451 222.835 58.2842 222.248 58.3246C221.66 58.3651 221.212 57.8907 221.247 57.2657C221.282 56.6408 221.787 56.1017 222.374 56.0613C222.962 56.0208 223.41 56.4954 223.375 57.1202Z" fill="#856F59"/>
<path d="M222.279 46.5786C222.132 46.5916 222.002 46.7344 221.989 46.8959L221.906 47.9645C221.893 48.126 222.003 48.2472 222.149 48.2342C222.296 48.2212 222.426 48.0784 222.439 47.9168L222.522 46.8483C222.534 46.6866 222.425 46.5654 222.279 46.5786Z" fill="#856F59"/>
<path d="M222.473 66.1693C222.327 66.1824 222.197 66.3251 222.184 66.4867L222.101 67.5553C222.088 67.7168 222.198 67.838 222.344 67.825C222.491 67.8119 222.621 67.6692 222.633 67.5076L222.717 66.439C222.729 66.2781 222.62 66.1563 222.473 66.1693Z" fill="#856F59"/>
<path d="M229.753 49.569C229.657 49.4636 229.486 49.4789 229.372 49.6034L228.618 50.4268C228.504 50.5513 228.489 50.739 228.584 50.8443C228.68 50.9497 228.851 50.9344 228.965 50.8099L229.719 49.9865C229.833 49.862 229.849 49.6743 229.753 49.569Z" fill="#856F59"/>
<path d="M216.038 63.5597C215.942 63.4544 215.771 63.4696 215.657 63.5941L214.903 64.4175C214.789 64.542 214.774 64.7297 214.869 64.835C214.965 64.9404 215.136 64.9251 215.25 64.8006L216.004 63.9773C216.118 63.8533 216.133 63.6651 216.038 63.5597Z" fill="#856F59"/>
<path d="M232.906 57.0339C232.92 56.8639 232.803 56.7365 232.647 56.7502L231.614 56.8412C231.458 56.855 231.319 57.0052 231.306 57.1752C231.292 57.3452 231.409 57.4726 231.565 57.4589L232.598 57.3679C232.754 57.354 232.893 57.2039 232.906 57.0339Z" fill="#856F59"/>
<path d="M213.315 57.2289C213.329 57.059 213.212 56.9315 213.056 56.9453L212.023 57.0363C211.867 57.05 211.729 57.2003 211.715 57.3703C211.702 57.5402 211.818 57.6677 211.975 57.6539L213.007 57.5629C213.163 57.549 213.301 57.3988 213.315 57.2289Z" fill="#856F59"/>
<path d="M229.817 64.6188C229.936 64.4897 229.952 64.2951 229.852 64.1861L229.194 63.4635C229.094 63.3544 228.915 63.3704 228.796 63.4996C228.677 63.6287 228.661 63.8233 228.761 63.9323L229.419 64.6549C229.519 64.7646 229.698 64.748 229.817 64.6188Z" fill="#856F59"/>
<path d="M215.826 50.9037C215.945 50.7746 215.961 50.5801 215.862 50.471L215.203 49.7484C215.103 49.6393 214.925 49.6553 214.806 49.7845C214.686 49.9136 214.67 50.1082 214.77 50.2178L215.428 50.9404C215.528 51.0494 215.707 51.0329 215.826 50.9037Z" fill="#856F59"/>
<path d="M237.079 92.1558L208.404 93.438L208.276 94.9933L236.951 93.7111L237.079 92.1558Z" fill="#856F59"/>
<path d="M234.047 92.1861L211.438 93.2661L211.307 94.9629L233.917 93.8828L234.047 92.1861Z" fill="#C2A587"/>
<path d="M237.314 115.72L208.639 117.002L208.512 118.557L237.187 117.275L237.314 115.72Z" fill="#856F59"/>
<path d="M234.283 115.75L211.674 116.83L211.543 118.527L234.152 117.447L234.283 115.75Z" fill="#C2A587"/>
<path d="M237.548 139.038L208.873 140.32L208.745 141.876L237.42 140.593L237.548 139.038Z" fill="#856F59"/>
<path d="M234.517 139.068L211.907 140.148L211.777 141.845L234.386 140.765L234.517 139.068Z" fill="#C2A587"/>
<path d="M237.781 162.357L209.106 163.639L208.978 165.194L237.653 163.912L237.781 162.357Z" fill="#856F59"/>
<path d="M234.749 162.387L212.14 163.467L212.009 165.164L234.618 164.084L234.749 162.387Z" fill="#C2A587"/>
<path d="M313.048 17.5334C309.266 14.922 304.878 12.8565 300.029 11.559C295.181 10.2615 290.348 9.85904 285.767 10.2321L281.073 27.7664L308.354 35.0683L313.048 17.5334Z" fill="#DBD8D0"/>
<path d="M311.047 16.9977C307.878 14.5504 304.167 12.6658 300.03 11.5586C295.892 10.4513 291.735 10.2298 287.767 10.7668L283.074 28.3011L306.354 34.5321L311.047 16.9977Z" fill="#F0ECE4"/>
<path d="M305.171 14.7632C303.854 12.8116 302.02 12.0912 300.03 11.5585C298.04 11.0259 296.09 10.7335 293.975 11.7663L289.116 29.9184L300.313 32.9152L305.171 14.7632Z" fill="#F7F5F0"/>
<path d="M312.647 19.0331C312.492 18.9918 312.341 18.923 312.202 18.8266C308.43 16.2222 304.2 14.2812 299.628 13.0582C295.057 11.8345 290.424 11.4033 285.854 11.7751C285.03 11.842 284.323 11.2055 284.275 10.3536C284.226 9.50112 284.855 8.75628 285.68 8.68868C290.578 8.28997 295.542 8.75065 300.431 10.0594C305.32 11.3682 309.851 13.4475 313.895 16.2403C314.576 16.7104 314.748 17.6699 314.28 18.3841C313.909 18.9511 313.245 19.1934 312.647 19.0331Z" fill="#CFCBC4"/>
<path d="M313.158 17.1223C313.003 17.081 312.852 17.0121 312.713 16.9158C308.941 14.3113 304.711 12.3704 300.14 11.1473C295.569 9.92431 290.935 9.49244 286.366 9.86423C285.729 9.91618 285.165 9.54501 284.918 8.98169C284.504 9.28776 284.243 9.79538 284.275 10.3537C284.323 11.2056 285.03 11.8421 285.854 11.7751C290.424 11.4033 295.057 11.8346 299.628 13.0583C304.199 14.2819 308.43 16.2222 312.202 18.8267C312.342 18.9231 312.492 18.9919 312.647 19.0332C313.245 19.1934 313.909 18.9518 314.28 18.3848C314.586 17.9172 314.614 17.347 314.408 16.8757C314.045 17.143 313.585 17.2368 313.158 17.1223Z" fill="#ABA7A1"/>
<path d="M290.587 23.651L292.29 17.2886C292.727 15.6562 291.769 13.9682 290.16 13.5375C288.551 13.1069 286.877 14.0902 286.44 15.7232L284.475 23.0658C286.512 23.1409 288.552 23.3374 290.587 23.651Z" fill="#6E6A67"/>
<path d="M307.889 29.3684L309.863 21.992C310.3 20.3596 309.341 18.6715 307.732 18.2409C306.124 17.8103 304.45 18.7936 304.013 20.4266L302.306 26.804C304.225 27.5545 306.088 28.4107 307.889 29.3684Z" fill="#6E6A67"/>
<path d="M307.083 28.9385L309.004 21.7618C309.312 20.6088 308.635 19.4165 307.499 19.1123C306.363 18.8081 305.181 19.5029 304.872 20.6558L303.14 27.1277C304.483 27.6804 305.799 28.2838 307.083 28.9385Z" fill="#8A8682"/>
<path d="M296.465 24.8759C297.446 25.1382 298.41 25.4355 299.366 25.7478L301.293 18.5498C301.73 16.9175 300.771 15.2294 299.162 14.7988C297.553 14.3681 295.88 15.3514 295.443 16.9844L293.516 24.1824C294.501 24.389 295.484 24.6137 296.465 24.8759Z" fill="#6E6A67"/>
<path d="M296.466 24.8759C297.157 25.0612 297.841 25.2615 298.52 25.4718L300.434 18.3201C300.742 17.1672 300.065 15.9748 298.929 15.6706C297.793 15.3664 296.611 16.0612 296.302 17.2141L294.388 24.3658C295.082 24.5235 295.774 24.6913 296.466 24.8759Z" fill="#8A8682"/>
<path d="M289.704 23.5117L291.431 17.0591C291.74 15.9062 291.062 14.7138 289.926 14.4096C288.79 14.1055 287.608 14.8002 287.299 15.9531L285.386 23.1023C286.826 23.1812 288.266 23.3145 289.704 23.5117Z" fill="#8A8682"/>
<path d="M311.402 36.2426C306.75 33.031 301.353 30.4898 295.389 28.8937C289.425 27.2977 283.48 26.8032 277.846 27.262L272.074 48.8284L305.629 57.809L311.402 36.2426Z" fill="#DBD8D0"/>
<path d="M308.941 35.584C305.044 32.574 300.478 30.2556 295.389 28.8937C290.3 27.5317 285.186 27.2594 280.307 27.9204L274.535 49.4874L303.169 57.1511L308.941 35.584Z" fill="#F0ECE4"/>
<path d="M301.713 32.835C300.093 30.4346 297.836 29.5484 295.389 28.8937C292.941 28.2383 290.543 27.879 287.941 29.149L281.966 51.4753L295.737 55.1613L301.713 32.835Z" fill="#F7F5F0"/>
<path d="M310.908 38.0871C310.718 38.0358 310.533 37.9519 310.361 37.833C305.721 34.6302 300.518 32.2423 294.896 30.7376C289.274 29.2329 283.574 28.7022 277.955 29.1597C276.941 29.2417 276.071 28.4593 276.011 27.4109C275.952 26.3625 276.725 25.4455 277.739 25.3635C283.764 24.8728 289.869 25.4399 295.883 27.0498C301.897 28.6596 307.469 31.2177 312.443 34.6521C313.281 35.2304 313.493 36.4109 312.918 37.2891C312.461 37.9869 311.644 38.2842 310.908 38.0871Z" fill="#CFCBC4"/>
<path d="M311.537 35.7375C311.347 35.6868 311.161 35.6023 310.989 35.4833C306.35 32.2799 301.147 29.8927 295.524 28.388C289.902 26.8833 284.202 26.3525 278.582 26.8101C277.798 26.8739 277.105 26.4176 276.802 25.7241C276.293 26.1003 275.971 26.725 276.01 27.4116C276.069 28.4594 276.939 29.2424 277.953 29.1604C283.573 28.7028 289.273 29.2336 294.895 30.7383C300.518 32.243 305.721 34.6302 310.359 37.8336C310.532 37.9526 310.717 38.0364 310.907 38.0878C311.643 38.2849 312.459 37.9876 312.916 37.2897C313.292 36.7151 313.326 36.0135 313.073 35.4333C312.628 35.7625 312.063 35.8777 311.537 35.7375Z" fill="#ABA7A1"/>
<path d="M282.294 42.359L284.404 34.4719C284.822 32.909 283.936 31.3017 282.435 30.8998C280.933 30.498 279.363 31.4475 278.944 33.0104L276.498 42.1512C278.427 42.1174 280.36 42.1788 282.294 42.359Z" fill="#6E6A67"/>
<path d="M281.45 42.2981L283.602 34.257C283.898 33.1535 283.272 32.0181 282.212 31.734C281.151 31.4504 280.042 32.1208 279.747 33.2249L277.361 42.1379C278.723 42.1366 280.087 42.193 281.45 42.2981Z" fill="#8A8682"/>
<path d="M290.21 43.7086L292.552 34.959C292.97 33.3961 292.084 31.7887 290.582 31.3869C289.081 30.985 287.51 31.9346 287.092 33.4975L284.647 42.6327C286.506 42.8893 288.361 43.2548 290.21 43.7086Z" fill="#6E6A67"/>
<path d="M289.404 43.5107L291.75 34.7442C292.046 33.6407 291.42 32.5053 290.359 32.2218C289.299 31.9382 288.19 32.6086 287.894 33.7127L285.472 42.7634C286.785 42.9649 288.096 43.2103 289.404 43.5107Z" fill="#8A8682"/>
<path d="M297.832 46.1613L300.277 37.0261C300.695 35.4632 299.809 33.8559 298.308 33.454C296.806 33.0522 295.236 34.0017 294.817 35.5646L292.476 44.3142C294.303 44.845 296.093 45.4553 297.832 46.1613Z" fill="#6E6A67"/>
<path d="M297.052 45.862L299.475 36.8113C299.77 35.7078 299.144 34.5724 298.084 34.2889C297.024 34.0047 295.914 34.6757 295.619 35.7798L293.272 44.5463C294.556 44.9388 295.814 45.3813 297.052 45.862Z" fill="#8A8682"/>
<path d="M305.132 49.8156L307.579 40.6747C307.997 39.1118 307.111 37.5045 305.609 37.1027C304.107 36.7008 302.537 37.651 302.119 39.2132L300.008 47.0997C301.773 47.9097 303.478 48.8222 305.132 49.8156Z" fill="#6E6A67"/>
<path d="M304.391 49.3725L306.776 40.4602C307.072 39.3567 306.446 38.2213 305.386 37.9371C304.325 37.6536 303.216 38.3239 302.92 39.428L300.768 47.4685C302.003 48.0587 303.212 48.6909 304.391 49.3725Z" fill="#8A8682"/>
<path d="M306.323 55.2184C301.671 52.0068 296.275 49.4656 290.31 47.8696C284.347 46.2735 278.402 45.779 272.768 46.2378L266.996 67.8049L300.551 76.7855L306.323 55.2184Z" fill="#DBD8D0"/>
<path d="M303.862 54.5601C299.965 51.5501 295.399 49.2317 290.31 47.8697C285.221 46.5077 280.108 46.2355 275.228 46.8964L269.456 68.4629L298.09 76.1265L303.862 54.5601Z" fill="#F0ECE4"/>
<path d="M296.635 51.8117C295.015 49.4114 292.758 48.5257 290.31 47.8704C287.863 47.215 285.465 46.8558 282.863 48.1264L276.888 70.4527L290.659 74.1387L296.635 51.8117Z" fill="#F7F5F0"/>
<path d="M305.829 57.0637C305.639 57.013 305.454 56.9285 305.281 56.8095C300.642 53.6061 295.439 51.2189 289.816 49.7142C284.195 48.2095 278.494 47.6787 272.875 48.1363C271.861 48.2183 270.991 47.4359 270.931 46.3875C270.872 45.3391 271.646 44.4227 272.66 44.3401C278.685 43.8494 284.789 44.4165 290.804 46.0263C296.818 47.6362 302.39 50.1936 307.364 53.6286C308.201 54.207 308.414 55.3875 307.838 56.2656C307.381 56.9629 306.565 57.2602 305.829 57.0637Z" fill="#CFCBC4"/>
<path d="M306.458 54.7133C306.268 54.6626 306.083 54.5781 305.91 54.4592C301.271 51.2564 296.068 48.8691 290.445 47.3638C284.824 45.8591 279.123 45.3284 273.504 45.7859C272.72 45.8498 272.027 45.3935 271.723 44.7C271.214 45.0761 270.893 45.7008 270.931 46.3874C270.991 47.4352 271.86 48.2182 272.875 48.1362C278.494 47.6787 284.194 48.2094 289.816 49.7141C295.439 51.2188 300.642 53.6061 305.281 56.8095C305.454 56.9284 305.639 57.0129 305.829 57.0636C306.565 57.2608 307.381 56.9634 307.838 56.2656C308.214 55.691 308.248 54.9893 307.996 54.4091C307.549 54.7383 306.984 54.8541 306.458 54.7133Z" fill="#ABA7A1"/>
<path d="M277.215 61.335L279.325 53.4485C279.744 51.8856 278.857 50.2782 277.356 49.8764C275.854 49.4745 274.284 50.4241 273.866 51.987L271.419 61.1278C273.348 61.094 275.281 61.1553 277.215 61.335Z" fill="#6E6A67"/>
<path d="M276.371 61.2748L278.523 53.2337C278.819 52.1302 278.193 50.9948 277.133 50.7113C276.072 50.4277 274.963 51.0981 274.667 52.2022L272.282 61.1152C273.644 61.1127 275.008 61.1696 276.371 61.2748Z" fill="#8A8682"/>
<path d="M285.131 62.6851L287.473 53.9355C287.892 52.3726 287.005 50.7653 285.504 50.3634C284.002 49.9616 282.432 50.9111 282.014 52.474L279.569 61.6092C281.427 61.8658 283.283 62.2314 285.131 62.6851Z" fill="#6E6A67"/>
<path d="M284.325 62.4867L286.672 53.7202C286.967 52.6167 286.341 51.4813 285.281 51.1971C284.221 50.9136 283.112 51.5839 282.816 52.688L280.394 61.7387C281.706 61.9415 283.017 62.1862 284.325 62.4867Z" fill="#8A8682"/>
<path d="M292.753 65.1374L295.198 56.0022C295.616 54.4393 294.73 52.8319 293.229 52.4301C291.727 52.0283 290.157 52.9778 289.738 54.5407L287.396 63.2903C289.225 63.8217 291.015 64.4313 292.753 65.1374Z" fill="#6E6A67"/>
<path d="M291.974 64.8387L294.396 55.788C294.691 54.6845 294.066 53.5491 293.005 53.265C291.945 52.9814 290.836 53.6518 290.54 54.7559L288.194 63.5224C289.477 63.9155 290.736 64.3574 291.974 64.8387Z" fill="#8A8682"/>
<path d="M300.054 68.7914L302.501 59.6506C302.919 58.0877 302.032 56.4803 300.531 56.0785C299.03 55.6767 297.459 56.6268 297.041 58.1891L294.93 66.0756C296.694 66.8861 298.4 67.7987 300.054 68.7914Z" fill="#6E6A67"/>
<path d="M299.313 68.3488L301.698 59.4364C301.993 58.333 301.367 57.1975 300.307 56.9134C299.247 56.6292 298.138 57.3002 297.842 58.4043L295.69 66.4448C296.924 67.035 298.133 67.6672 299.313 68.3488Z" fill="#8A8682"/>
<path d="M301.303 73.9726C296.651 70.761 291.254 68.2198 285.29 66.6237C279.326 65.0276 273.382 64.5332 267.748 64.992L261.976 86.5584L295.531 95.539L301.303 73.9726Z" fill="#DBD8D0"/>
<path d="M298.843 73.314C294.946 70.304 290.38 67.9856 285.291 66.6236C280.202 65.2617 275.089 64.9894 270.209 65.6503L264.437 87.2174L293.071 94.8811L298.843 73.314Z" fill="#F0ECE4"/>
<path d="M291.615 70.565C289.995 68.1646 287.738 67.2783 285.29 66.6236C282.843 65.9683 280.445 65.609 277.843 66.879L271.868 89.2053L285.639 92.8913L291.615 70.565Z" fill="#F7F5F0"/>
<path d="M300.809 75.8171C300.619 75.7664 300.434 75.6819 300.262 75.563C295.622 72.3595 290.419 69.9723 284.797 68.4676C279.175 66.9629 273.475 66.4322 267.855 66.8897C266.841 66.9717 265.971 66.1893 265.912 65.1409C265.852 64.0925 266.626 63.1762 267.64 63.0935C273.665 62.6028 279.769 63.1699 285.783 64.7791C291.797 66.389 297.369 68.9464 302.343 72.3814C303.181 72.9598 303.393 74.1403 302.818 75.0184C302.362 75.7169 301.545 76.0142 300.809 75.8171Z" fill="#CFCBC4"/>
<path d="M301.439 73.4674C301.249 73.4167 301.063 73.3322 300.891 73.2133C296.252 70.0099 291.049 67.6227 285.426 66.118C279.804 64.6133 274.104 64.0825 268.485 64.5401C267.7 64.6039 267.007 64.1476 266.704 63.4541C266.195 63.8303 265.873 64.4549 265.912 65.1416C265.972 66.1893 266.841 66.9724 267.856 66.8904C273.475 66.4328 279.175 66.9636 284.797 68.4683C290.42 69.973 295.623 72.3602 300.262 75.5636C300.434 75.6825 300.62 75.7664 300.81 75.8177C301.546 76.0149 302.362 75.7176 302.819 75.0197C303.195 74.4451 303.229 73.7435 302.976 73.1633C302.529 73.4925 301.965 73.6083 301.439 73.4674Z" fill="#ABA7A1"/>
<path d="M272.195 80.089L274.305 72.2019C274.724 70.639 273.837 69.0316 272.336 68.6298C270.834 68.228 269.264 69.1775 268.846 70.7404L266.399 79.8812C268.329 79.8474 270.262 79.9087 272.195 80.089Z" fill="#6E6A67"/>
<path d="M271.352 80.0283L273.503 71.9872C273.799 70.8838 273.173 69.7484 272.113 69.4642C271.052 69.1807 269.943 69.851 269.648 70.9551L267.262 79.8681C268.624 79.8669 269.988 79.9232 271.352 80.0283Z" fill="#8A8682"/>
<path d="M280.112 81.4385L282.453 72.6889C282.871 71.126 281.985 69.5187 280.483 69.1168C278.982 68.715 277.412 69.6651 276.993 71.2274L274.549 80.3626C276.408 80.6192 278.263 80.9847 280.112 81.4385Z" fill="#6E6A67"/>
<path d="M279.306 81.2408L281.652 72.4743C281.947 71.3708 281.322 70.2354 280.261 69.9513C279.201 69.6677 278.092 70.3381 277.796 71.4422L275.374 80.4929C276.686 80.695 277.997 80.9404 279.306 81.2408Z" fill="#8A8682"/>
<path d="M287.733 83.8915L290.178 74.7563C290.596 73.1934 289.71 71.586 288.208 71.1842C286.707 70.7824 285.136 71.7325 284.718 73.2948L282.377 82.0444C284.205 82.5752 285.994 83.1854 287.733 83.8915Z" fill="#6E6A67"/>
<path d="M286.954 83.5922L289.376 74.5416C289.672 73.4381 289.046 72.3027 287.986 72.0191C286.925 71.7356 285.816 72.4059 285.521 73.51L283.174 82.2766C284.457 82.669 285.716 83.1115 286.954 83.5922Z" fill="#8A8682"/>
<path d="M295.033 87.5456L297.48 78.4048C297.898 76.8419 297.012 75.2345 295.51 74.8327C294.009 74.4308 292.438 75.3804 292.02 76.9433L289.909 84.8298C291.674 85.6397 293.379 86.5523 295.033 87.5456Z" fill="#6E6A67"/>
<path d="M294.293 87.1023L296.678 78.19C296.974 77.0865 296.348 75.9511 295.287 75.6675C294.227 75.3834 293.118 76.0543 292.823 77.1585L290.671 85.1996C291.904 85.7892 293.114 86.4207 294.293 87.1023Z" fill="#8A8682"/>
<path d="M296.216 92.9821C291.564 89.7705 286.167 87.2293 280.203 85.6332C274.239 84.0372 268.294 83.5427 262.661 84.0015L256.888 105.568L290.444 114.549L296.216 92.9821Z" fill="#DBD8D0"/>
<path d="M293.755 92.3238C289.858 89.3138 285.292 86.9954 280.203 85.6334C275.114 84.2714 270.001 83.9992 265.121 84.6601L259.349 106.227L287.983 113.891L293.755 92.3238Z" fill="#F0ECE4"/>
<path d="M286.527 89.5752C284.908 87.1748 282.651 86.2885 280.203 85.6338C277.755 84.9791 275.358 84.6192 272.756 85.8898L266.78 108.216L280.551 111.902L286.527 89.5752Z" fill="#F7F5F0"/>
<path d="M295.722 94.8273C295.531 94.7766 295.346 94.6921 295.174 94.5732C290.535 91.3698 285.331 88.9826 279.709 87.4779C274.087 85.9732 268.387 85.4424 262.767 85.8999C261.753 85.9819 260.883 85.1995 260.824 84.1511C260.764 83.1027 261.538 82.1858 262.552 82.1038C268.577 81.6131 274.681 82.1801 280.696 83.79C286.71 85.3998 292.282 87.9573 297.256 91.3923C298.094 91.9707 298.306 93.1511 297.731 94.0293C297.274 94.7265 296.458 95.0239 295.722 94.8273Z" fill="#CFCBC4"/>
<path d="M296.351 92.477C296.161 92.4263 295.975 92.3418 295.803 92.2228C291.164 89.0194 285.961 86.6322 280.338 85.1275C274.716 83.6228 269.016 83.092 263.397 83.5496C262.612 83.6134 261.92 83.1571 261.616 82.4636C261.107 82.8398 260.785 83.4645 260.824 84.1511C260.884 85.1989 261.753 85.9819 262.768 85.8999C268.387 85.4423 274.087 85.9731 279.709 87.4778C285.332 88.9825 290.535 91.3697 295.174 94.5731C295.346 94.6921 295.532 94.7766 295.722 94.8273C296.458 95.0244 297.274 94.7271 297.731 94.0292C298.107 93.4546 298.141 92.753 297.889 92.1728C297.441 92.502 296.877 92.6178 296.351 92.477Z" fill="#ABA7A1"/>
<path d="M267.107 99.0986L269.218 91.2121C269.636 89.6492 268.75 88.0419 267.249 87.6401C265.747 87.2382 264.177 88.1877 263.758 89.7506L261.311 98.8915C263.24 98.8577 265.174 98.919 267.107 99.0986Z" fill="#6E6A67"/>
<path d="M266.264 99.0379L268.416 90.9968C268.711 89.8934 268.086 88.758 267.025 88.4744C265.965 88.1903 264.856 88.8612 264.56 89.9653L262.175 98.8783C263.536 98.8765 264.9 98.9328 266.264 99.0379Z" fill="#8A8682"/>
<path d="M275.024 100.449L277.366 91.6992C277.784 90.1363 276.898 88.5289 275.396 88.1271C273.895 87.7252 272.324 88.6754 271.906 90.2376L269.461 99.3728C271.32 99.6295 273.176 99.995 275.024 100.449Z" fill="#6E6A67"/>
<path d="M274.218 100.25L276.565 91.4839C276.86 90.3804 276.234 89.245 275.174 88.9615C274.113 88.6773 273.004 89.3483 272.709 90.4524L270.287 99.5031C271.599 99.7053 272.91 99.95 274.218 100.25Z" fill="#8A8682"/>
<path d="M282.645 102.901L285.09 93.7658C285.508 92.2029 284.622 90.5956 283.12 90.1937C281.619 89.7919 280.048 90.742 279.63 92.3043L277.288 101.054C279.117 101.585 280.907 102.195 282.645 102.901Z" fill="#6E6A67"/>
<path d="M281.866 102.602L284.288 93.5517C284.584 92.4482 283.958 91.3128 282.897 91.0287C281.837 90.7451 280.727 91.4155 280.432 92.5196L278.086 101.286C279.369 101.679 280.628 102.121 281.866 102.602Z" fill="#8A8682"/>
<path d="M289.946 106.555L292.393 97.4142C292.811 95.8513 291.924 94.244 290.423 93.8422C288.921 93.4403 287.351 94.3905 286.932 95.9527L284.822 103.839C286.587 104.65 288.292 105.562 289.946 106.555Z" fill="#6E6A67"/>
<path d="M289.205 106.113L291.591 97.2003C291.886 96.0968 291.26 94.9614 290.2 94.6778C289.139 94.3943 288.03 95.0646 287.735 96.1687L285.583 104.21C286.817 104.799 288.026 105.431 289.205 106.113Z" fill="#8A8682"/>
<path d="M291.195 111.736C286.544 108.525 281.146 105.984 275.183 104.388C269.219 102.792 263.274 102.296 257.64 102.756L251.868 124.323L285.423 133.304L291.195 111.736Z" fill="#DBD8D0"/>
<path d="M288.736 111.078C284.838 108.068 280.273 105.75 275.183 104.388C270.094 103.026 264.981 102.753 260.101 103.414L254.329 124.981L282.964 132.645L288.736 111.078Z" fill="#F0ECE4"/>
<path d="M281.507 108.329C279.888 105.929 277.631 105.042 275.183 104.388C272.736 103.732 270.338 103.373 267.736 104.644L261.76 126.97L275.532 130.656L281.507 108.329Z" fill="#F7F5F0"/>
<path d="M290.702 113.581C290.512 113.53 290.326 113.446 290.154 113.327C285.515 110.123 280.312 107.736 274.689 106.232C269.067 104.727 263.367 104.196 257.748 104.654C256.734 104.736 255.864 103.953 255.804 102.905C255.745 101.856 256.518 100.94 257.532 100.857C263.557 100.367 269.662 100.934 275.676 102.544C281.69 104.153 287.262 106.711 292.236 110.146C293.074 110.724 293.286 111.905 292.711 112.783C292.254 113.481 291.438 113.778 290.702 113.581Z" fill="#CFCBC4"/>
<path d="M291.331 111.231C291.141 111.18 290.956 111.095 290.784 110.977C286.145 107.773 280.941 105.386 275.319 103.881C269.697 102.376 263.997 101.846 258.377 102.303C257.593 102.367 256.9 101.911 256.596 101.217C256.088 101.593 255.766 102.218 255.805 102.905C255.864 103.953 256.734 104.736 257.748 104.654C263.368 104.196 269.068 104.727 274.69 106.231C280.312 107.736 285.515 110.123 290.155 113.327C290.327 113.446 290.512 113.53 290.702 113.581C291.438 113.778 292.255 113.481 292.712 112.783C293.088 112.208 293.122 111.507 292.869 110.926C292.422 111.256 291.857 111.371 291.331 111.231Z" fill="#ABA7A1"/>
<path d="M262.087 117.853L264.198 109.966C264.616 108.403 263.729 106.796 262.228 106.394C260.726 105.992 259.156 106.941 258.738 108.504L256.291 117.645C258.221 117.611 260.154 117.673 262.087 117.853Z" fill="#6E6A67"/>
<path d="M261.244 117.792L263.396 109.751C263.691 108.648 263.065 107.512 262.005 107.229C260.944 106.945 259.835 107.616 259.54 108.72L257.155 117.633C258.516 117.631 259.88 117.687 261.244 117.792Z" fill="#8A8682"/>
<path d="M270.004 119.202L272.346 110.453C272.764 108.89 271.877 107.283 270.376 106.881C268.875 106.479 267.304 107.428 266.886 108.991L264.441 118.127C266.3 118.383 268.155 118.749 270.004 119.202Z" fill="#6E6A67"/>
<path d="M269.198 119.005L271.544 110.238C271.84 109.135 271.214 107.999 270.153 107.716C269.093 107.432 267.984 108.102 267.689 109.207L265.266 118.257C266.578 118.459 267.89 118.704 269.198 119.005Z" fill="#8A8682"/>
<path d="M277.626 121.655L280.071 112.52C280.489 110.957 279.602 109.35 278.102 108.948C276.6 108.546 275.03 109.496 274.611 111.059L272.269 119.808C274.097 120.339 275.887 120.949 277.626 121.655Z" fill="#6E6A67"/>
<path d="M276.847 121.356L279.269 112.305C279.564 111.202 278.939 110.066 277.878 109.782C276.818 109.499 275.709 110.169 275.413 111.273L273.067 120.039C274.35 120.433 275.608 120.875 276.847 121.356Z" fill="#8A8682"/>
<path d="M284.926 125.309L287.372 116.169C287.791 114.606 286.904 112.998 285.403 112.597C283.902 112.195 282.331 113.145 281.913 114.707L279.802 122.594C281.566 123.404 283.272 124.316 284.926 125.309Z" fill="#6E6A67"/>
<path d="M284.185 124.866L286.57 115.954C286.865 114.851 286.24 113.715 285.179 113.431C284.119 113.147 283.01 113.818 282.714 114.922L280.562 122.962C281.796 123.553 283.006 124.185 284.185 124.866Z" fill="#8A8682"/>
<path d="M286.097 130.789C281.445 127.577 276.049 125.036 270.084 123.44C264.121 121.844 258.176 121.349 252.542 121.807L246.77 143.374L280.325 152.355L286.097 130.789Z" fill="#DBD8D0"/>
<path d="M283.637 130.129C279.739 127.119 275.174 124.801 270.084 123.439C264.995 122.077 259.882 121.805 255.002 122.466L249.23 144.033L277.864 151.697L283.637 130.129Z" fill="#F0ECE4"/>
<path d="M276.409 127.381C274.79 124.981 272.532 124.094 270.085 123.44C267.637 122.785 265.239 122.425 262.637 123.695L256.662 146.021L270.433 149.707L276.409 127.381Z" fill="#F7F5F0"/>
<path d="M285.603 132.633C285.413 132.582 285.228 132.498 285.056 132.379C280.416 129.175 275.213 126.788 269.591 125.284C263.969 123.779 258.269 123.248 252.649 123.706C251.635 123.788 250.765 123.005 250.706 121.957C250.646 120.908 251.42 119.992 252.434 119.909C258.459 119.419 264.563 119.986 270.577 121.595C276.591 123.205 282.163 125.763 287.137 129.197C287.975 129.776 288.187 130.956 287.612 131.834C287.156 132.533 286.339 132.83 285.603 132.633Z" fill="#CFCBC4"/>
<path d="M286.233 130.283C286.042 130.232 285.857 130.147 285.685 130.029C281.046 126.825 275.842 124.438 270.22 122.933C264.598 121.428 258.898 120.898 253.278 121.355C252.494 121.419 251.801 120.963 251.498 120.269C250.989 120.645 250.667 121.27 250.706 121.957C250.765 123.005 251.635 123.788 252.649 123.706C258.269 123.248 263.969 123.779 269.591 125.283C275.213 126.788 280.417 129.175 285.056 132.379C285.228 132.498 285.413 132.582 285.604 132.633C286.34 132.83 287.156 132.533 287.613 131.835C287.989 131.26 288.023 130.559 287.77 129.978C287.323 130.308 286.758 130.423 286.233 130.283Z" fill="#ABA7A1"/>
<path d="M254.69 145.494L258.818 130.071C259.236 128.508 258.35 126.901 256.849 126.499C255.347 126.097 253.777 127.047 253.358 128.61L249.23 144.033L254.69 145.494Z" fill="#6E6A67"/>
<path d="M253.888 145.28L258.015 129.857C258.311 128.754 257.685 127.618 256.625 127.334C255.564 127.051 254.455 127.721 254.16 128.825L250.032 144.247L253.888 145.28Z" fill="#8A8682"/>
<path d="M262.414 147.562L266.965 130.559C267.383 128.996 266.497 127.389 264.995 126.987C263.494 126.585 261.923 127.535 261.505 129.097L256.954 146.1L262.414 147.562Z" fill="#6E6A67"/>
<path d="M261.612 147.347L266.163 130.344C266.459 129.24 265.833 128.105 264.773 127.821C263.712 127.537 262.603 128.208 262.308 129.312L257.757 146.315L261.612 147.347Z" fill="#8A8682"/>
<path d="M270.139 149.629L274.69 132.626C275.108 131.063 274.222 129.456 272.72 129.054C271.219 128.652 269.648 129.602 269.23 131.165L264.679 148.168L270.139 149.629Z" fill="#6E6A67"/>
<path d="M269.338 149.414L273.889 132.411C274.184 131.308 273.558 130.172 272.498 129.888C271.438 129.605 270.329 130.275 270.033 131.379L265.482 148.382L269.338 149.414Z" fill="#8A8682"/>
<path d="M277.864 151.696L281.992 136.274C282.41 134.711 281.524 133.104 280.023 132.702C278.522 132.3 276.951 133.25 276.532 134.812L272.405 150.235L277.864 151.696Z" fill="#6E6A67"/>
<path d="M277.062 151.482L281.19 136.059C281.485 134.956 280.86 133.82 279.799 133.537C278.739 133.253 277.63 133.924 277.334 135.028L273.207 150.45L277.062 151.482Z" fill="#8A8682"/>
<path d="M181.943 140.966C181.727 141.027 181.489 140.871 181.411 140.618L178.384 130.699C178.306 130.446 178.419 130.191 178.635 130.13C178.852 130.069 179.09 130.224 179.167 130.477L182.195 140.396C182.272 140.65 182.159 140.904 181.943 140.966Z" fill="#003847"/>
<path d="M218.733 151.756C218.669 151.772 218.599 151.775 218.527 151.761L206.775 149.597C206.601 149.564 206.442 149.446 206.351 149.278C206.26 149.111 206.249 148.919 206.322 148.764L209.708 141.562L199.143 141.436C198.924 141.433 198.712 141.286 198.612 141.068C198.513 140.85 198.547 140.608 198.698 140.463L203.815 135.535L193.567 137.614C193.332 137.662 193.075 137.524 192.951 137.285C192.827 137.046 192.869 136.769 193.053 136.624L198.76 132.087L189.533 135.792C189.325 135.88 189.06 135.792 188.9 135.583C188.741 135.375 188.723 135.098 188.858 134.912L194.818 126.604L183.945 134.379C183.776 134.499 183.54 134.486 183.35 134.347C183.161 134.207 183.06 133.97 183.096 133.751L183.774 129.678L180.04 135.222C179.915 135.408 179.675 135.468 179.452 135.368L172.798 132.413L175.946 135.532C176.115 135.699 176.18 135.946 176.11 136.151C176.039 136.355 175.847 136.474 175.63 136.451L161.55 134.893L171.827 139.155C172.059 139.251 172.219 139.492 172.216 139.74C172.214 139.989 172.053 140.187 171.815 140.206L161.698 141.322L169.376 142.523C169.624 142.562 169.834 142.775 169.882 143.034C169.929 143.292 169.799 143.526 169.571 143.593L159.623 146.546L167.051 148.348C167.271 148.401 167.453 148.589 167.507 148.819C167.561 149.048 167.475 149.269 167.293 149.372L158.473 154.329L165.883 158.84C166.042 158.937 166.154 159.104 166.184 159.287C166.213 159.469 166.155 159.642 166.029 159.75L157.499 166.968C157.29 167.144 156.958 167.089 156.76 166.845C156.561 166.599 156.569 166.256 156.778 166.079L164.744 159.339L157.189 154.739C157.016 154.633 156.9 154.446 156.884 154.247C156.867 154.048 156.955 153.871 157.112 153.782L165.507 149.064L157.467 147.115C157.229 147.057 157.037 146.841 157.002 146.59C156.966 146.339 157.095 146.118 157.317 146.052L166.871 143.215L157.56 141.758C157.296 141.716 157.077 141.479 157.048 141.203C157.019 140.928 157.183 140.696 157.446 140.671L169.559 139.336L157.781 134.453C157.53 134.349 157.365 134.075 157.395 133.811C157.425 133.547 157.64 133.372 157.9 133.401L174.2 135.204L170.148 131.189C169.956 130.998 169.9 130.709 170.017 130.497C170.132 130.285 170.387 130.209 170.626 130.315L179.369 134.2L184.277 126.916C184.41 126.717 184.673 126.664 184.905 126.789C185.137 126.915 185.274 127.184 185.233 127.432L184.361 132.674L196.949 123.673C197.148 123.53 197.441 123.578 197.633 123.787C197.826 123.996 197.86 124.301 197.714 124.504L190.884 134.024L201.932 129.588C202.16 129.491 202.454 129.608 202.604 129.854C202.753 130.1 202.72 130.401 202.524 130.556L195.603 136.058L205.446 134.062C205.673 134.015 205.922 134.142 206.051 134.37C206.179 134.597 206.154 134.867 205.991 135.026L200.452 140.358L210.509 140.479C210.698 140.481 210.884 140.591 210.996 140.766C211.107 140.94 211.128 141.152 211.049 141.32L207.597 148.663L218.572 150.684C218.86 150.737 219.085 151.022 219.072 151.32C219.062 151.542 218.923 151.709 218.733 151.756Z" fill="#005E78"/>
<path d="M167.84 125.652C167.733 125.68 167.611 125.663 167.5 125.594L161.448 121.858C161.316 121.777 161.219 121.635 161.189 121.476C161.159 121.318 161.198 121.162 161.294 121.057L165.64 116.313L160.558 111.971C160.442 111.872 160.368 111.725 160.356 111.572C160.345 111.419 160.398 111.278 160.5 111.188L164.679 107.52L159.777 104.053C159.645 103.959 159.555 103.805 159.538 103.641C159.521 103.477 159.578 103.324 159.691 103.231L163.595 100.03L158.639 95.8963C158.502 95.7823 158.423 95.6033 158.432 95.427C158.44 95.2509 158.535 95.1048 158.68 95.0444L162.052 93.6359L157.945 90.4217C157.81 90.3157 157.726 90.1463 157.724 89.9747C157.722 89.8027 157.801 89.6529 157.934 89.5785L163.51 86.4594L157.008 83.9014C156.858 83.8424 156.737 83.7058 156.686 83.5408C156.635 83.3745 156.662 83.2018 156.757 83.0818L160.985 77.7697L155.798 76.0736C155.654 76.0271 155.532 75.9093 155.469 75.7576C155.406 75.6061 155.41 75.4389 155.479 75.3086L158.464 69.7008L154.295 68.6739C154.142 68.6366 154.008 68.5178 153.938 68.359C153.869 68.2001 153.873 68.0232 153.951 67.8883L156.605 63.2623L152.147 59.0888C151.963 58.9163 151.909 58.635 152.02 58.432L153.892 55.0362L151.085 53.2657C150.971 53.1936 150.883 53.0755 150.843 52.9396C150.804 52.8038 150.816 52.6626 150.877 52.5507L152.269 49.9706L149.644 48.3018C149.417 48.1571 149.318 47.8508 149.422 47.616C149.528 47.3817 149.797 47.3091 150.024 47.4538L153.09 49.4032C153.204 49.476 153.291 49.5937 153.331 49.7295C153.37 49.8648 153.358 50.0054 153.297 50.1179L151.906 52.6965L154.717 54.469C154.833 54.5416 154.921 54.6608 154.96 54.7973C154.999 54.9338 154.986 55.0752 154.924 55.188L153.007 58.6656L157.471 62.8443C157.657 63.0186 157.71 63.3044 157.593 63.507L155.088 67.8746L159.234 68.8961C159.384 68.933 159.518 69.0485 159.588 69.2042C159.658 69.3598 159.657 69.5345 159.585 69.6698L156.576 75.3229L161.888 77.0597C162.045 77.1109 162.175 77.2459 162.232 77.4158C162.289 77.5853 162.263 77.7654 162.165 77.8885L157.908 83.2378L164.764 85.9357C164.941 86.0054 165.076 86.1804 165.106 86.3803C165.136 86.5802 165.055 86.766 164.901 86.852L159.043 90.1292L163.225 93.4032C163.368 93.5145 163.452 93.6951 163.446 93.8747C163.441 94.0543 163.345 94.2041 163.197 94.2658L159.797 95.6863L164.594 99.6868C164.713 99.7868 164.79 99.9372 164.8 100.094C164.811 100.251 164.754 100.394 164.646 100.482L160.785 103.648L165.669 107.102C165.799 107.194 165.888 107.345 165.907 107.506C165.926 107.668 165.873 107.821 165.765 107.915L161.539 111.624L166.576 115.927C166.686 116.021 166.759 116.158 166.775 116.302C166.793 116.447 166.752 116.585 166.664 116.68L162.383 121.354L167.868 124.739C168.096 124.881 168.2 125.187 168.098 125.422C168.046 125.543 167.951 125.622 167.84 125.652Z" fill="#005E78"/>
<path d="M187.834 119.96C187.723 119.99 187.596 119.97 187.481 119.894C187.255 119.746 187.16 119.437 187.269 119.206L189.881 113.655L183.512 111.83C183.381 111.793 183.266 111.697 183.194 111.567C183.123 111.437 183.103 111.286 183.14 111.153L184.831 105.051L179.079 104.011C178.932 103.984 178.797 103.882 178.718 103.736C178.638 103.591 178.624 103.42 178.679 103.279L180.745 97.9652L175.621 97.2034C175.479 97.1823 175.346 97.0894 175.261 96.9524C175.177 96.8154 175.153 96.651 175.194 96.5079L176.864 90.7777L173.16 91.2574C173 91.2783 172.83 91.1994 172.719 91.051C172.608 90.9027 172.572 90.7091 172.626 90.5454L174.208 85.7294L167.337 85.8573C167.157 85.8607 166.979 85.7439 166.886 85.5609C166.793 85.3779 166.802 85.164 166.91 85.0185L171.084 79.37L164.334 76.965C164.178 76.9093 164.05 76.7709 163.997 76.6003C163.945 76.4298 163.974 76.2516 164.076 76.1311L167.519 72.0523L161.64 68.777C161.499 68.6988 161.394 68.5517 161.362 68.3865C161.329 68.2209 161.372 68.058 161.477 67.953L164.362 65.0505L159.668 62.609C159.45 62.4958 159.325 62.2293 159.379 61.9908L160.661 56.2751L156.988 54.2927C156.87 54.2289 156.775 54.1156 156.727 53.9814C156.679 53.8466 156.683 53.7034 156.737 53.5856L158.053 50.709L155.356 49.2241C155.239 49.1598 155.145 49.0474 155.098 48.9137C155.051 48.7805 155.054 48.638 155.107 48.5205L156.533 45.3696C156.639 45.1357 156.909 45.0648 157.135 45.2097C157.362 45.3551 157.46 45.6624 157.355 45.8961L156.134 48.5936L158.833 50.0792C158.951 50.1439 159.045 50.2569 159.092 50.3901C159.138 50.524 159.134 50.6667 159.081 50.7843L157.766 53.6569L161.352 55.5926C161.566 55.7079 161.687 55.9719 161.635 56.2077L160.353 61.9166L165.325 64.5025C165.47 64.5779 165.579 64.725 165.614 64.8925C165.65 65.0604 165.607 65.2267 165.5 65.3335L162.599 68.2514L168.432 71.5004C168.568 71.5758 168.67 71.7147 168.706 71.8734C168.743 72.0321 168.71 72.191 168.617 72.3013L165.255 76.2842L171.958 78.6725C172.109 78.7265 172.234 78.8586 172.29 79.0236C172.345 79.188 172.323 79.3624 172.232 79.486L168.275 84.8417L174.813 84.7202C174.969 84.7174 175.125 84.8047 175.225 84.95C175.326 85.0958 175.355 85.2797 175.304 85.435L173.75 90.1634L177.422 89.6878C177.58 89.667 177.746 89.7433 177.858 89.8873C177.969 90.0314 178.009 90.221 177.961 90.3843L176.237 96.3055L181.419 97.0757C181.568 97.098 181.706 97.199 181.789 97.3459C181.871 97.4929 181.887 97.6667 181.832 97.81L179.758 103.143L185.447 104.171C185.586 104.196 185.715 104.29 185.796 104.423C185.877 104.557 185.901 104.718 185.862 104.858L184.157 111.015L190.622 112.868C190.766 112.909 190.891 113.021 190.959 113.169C191.027 113.318 191.03 113.484 190.967 113.618L188.086 119.744C188.033 119.857 187.94 119.931 187.834 119.96Z" fill="#005E78"/>
<path d="M156.692 44.5863C156.611 44.6062 156.522 44.6031 156.431 44.5734L150.491 42.6052C150.224 42.5165 150.048 42.2276 150.097 41.9599C150.145 41.6921 150.402 41.5468 150.669 41.6349L156.608 43.6031C156.875 43.6917 157.052 43.9805 157.003 44.2484C156.971 44.4247 156.849 44.5479 156.692 44.5863Z" fill="#003847"/>
<path d="M151.852 45.7758C151.696 45.8141 151.514 45.7657 151.373 45.6312C151.161 45.4276 151.124 45.1044 151.292 44.9088L155.036 40.5607C155.205 40.3657 155.513 40.3722 155.725 40.5757C155.938 40.7791 155.974 41.1026 155.806 41.2981L152.063 45.6462C152.006 45.7128 151.932 45.7561 151.852 45.7758Z" fill="#003847"/>
<path d="M219.471 152.72L207.242 155.782L207.021 155.505C206.901 155.354 194.916 140.439 184.652 143.009C174.381 145.58 173.68 163.672 173.673 163.854L173.663 164.19L161.433 167.252L161.453 166.504C161.458 166.283 162.039 144.236 161.791 131.175C161.019 90.712 147.74 43.4672 147.606 42.9946L147.472 42.5213L152.721 41.2069L152.906 41.6675C153.09 42.127 171.645 88.056 196.461 122.494C204.474 133.612 218.84 151.916 218.984 152.1L219.471 152.72ZM207.503 154.639L217.788 152.064C215.2 148.758 202.91 133.016 195.721 123.038C172.153 90.3335 154.226 47.3292 152.211 42.4133L148.661 43.3022C150.058 48.3728 162.024 92.8695 162.756 131.292C162.979 143.013 162.536 161.944 162.437 165.923L172.723 163.348C172.861 160.717 174.117 144.569 184.313 142.016C194.508 139.464 205.731 152.487 207.503 154.639ZM188.575 122.174L168.232 127.267L168.161 126.617C168.132 126.363 165.325 101.113 162.755 92.9165L162.603 92.4306L171.39 90.2305L171.567 90.7095C174.562 98.8011 188.09 121.366 188.226 121.593L188.575 122.174ZM169.048 125.986L187.082 121.47C184.932 117.869 173.933 99.3063 170.855 91.443L163.816 93.2054C166.172 101.249 168.592 121.96 169.048 125.986Z" fill="#003847"/>
<path d="M195.013 116.236L157.31 126.637C156.666 126.815 156.185 127.359 156.039 128.077L155.374 131.334L199.348 119.204L196.913 116.802C196.375 116.273 195.658 116.059 195.013 116.236Z" fill="#005E78"/>
<path d="M157.774 45.5821L151.628 47.091L149.054 39.6929L155.201 38.1839L157.774 45.5821ZM152.184 45.9028L156.545 44.8322L154.645 39.3713L150.285 40.4419L152.184 45.9028Z" fill="#003847"/>
<path d="M155.511 40.1752L150.831 41.3664L148.95 28.2271L155.511 40.1752ZM151.555 40.1617L154.154 39.5003L150.511 32.866L151.555 40.1617Z" fill="#003847"/>
<path d="M152.51 40.2162L149.891 30.6432L152.985 40.0797C153.035 40.2332 152.97 40.3917 152.841 40.4338C152.711 40.4759 152.565 40.386 152.515 40.2325C152.513 40.2271 152.511 40.2211 152.51 40.2162Z" fill="#003847"/>
<path d="M155.457 41.3005L151.096 42.3918C150.233 42.6077 149.263 42.013 148.94 41.07C148.618 40.1269 149.059 39.1792 149.922 38.9633L154.284 37.872C155.147 37.6561 156.117 38.2508 156.439 39.1938C156.762 40.1369 156.32 41.0846 155.457 41.3005Z" fill="#003847"/>
<path d="M209.437 153.268C209.286 153.05 194.158 131.527 179.55 135.152C164.935 138.779 165.868 163.824 165.88 164.077L164.886 163.984C164.839 162.922 163.915 137.932 179.201 134.139C194.486 130.345 209.58 151.82 210.216 152.736L209.437 153.268Z" fill="#003847"/>
<path d="M169.299 163.428C169.081 163.482 168.829 163.363 168.702 163.132L165.251 156.842C165.123 156.609 165.166 156.335 165.351 156.197L170.158 152.63L167.765 145.706C167.671 145.436 167.791 145.166 168.034 145.092L174.721 143.084L172.916 137.863C172.855 137.686 172.883 137.502 172.99 137.377C173.095 137.251 173.266 137.202 173.437 137.247L180.887 139.189L185.924 134.156C186.041 134.041 186.215 134.005 186.384 134.062C186.554 134.119 186.695 134.261 186.756 134.438L188.56 139.659L195.473 138.302C195.725 138.253 195.997 138.427 196.091 138.697L198.483 145.62L204.805 146.434C205.049 146.465 205.259 146.677 205.299 146.931L206.398 153.804C206.444 154.09 206.263 154.332 205.992 154.338C205.721 154.347 205.465 154.123 205.42 153.837L204.392 147.406L198.147 146.602C197.938 146.576 197.75 146.416 197.677 146.203L195.329 139.409L188.417 140.766C188.164 140.815 187.892 140.641 187.799 140.371L186.113 135.494L181.45 140.151C181.343 140.259 181.184 140.298 181.026 140.256L174.132 138.458L175.817 143.336C175.911 143.606 175.792 143.877 175.548 143.95L168.861 145.958L171.21 152.752C171.283 152.965 171.226 153.185 171.067 153.303L166.319 156.827L169.548 162.713C169.691 162.974 169.618 163.28 169.385 163.396C169.357 163.411 169.328 163.421 169.299 163.428Z" fill="#003847"/>
<path d="M175.657 145.061C175.561 145.085 175.452 145.076 175.347 145.028L170.531 142.856C170.274 142.741 170.128 142.44 170.205 142.187C170.282 141.933 170.553 141.822 170.81 141.938L175.625 144.11C175.883 144.225 176.029 144.526 175.952 144.779C175.906 144.928 175.794 145.028 175.657 145.061Z" fill="#003847"/>
<path d="M171.944 149.633C171.824 149.662 171.686 149.64 171.562 149.558L167.772 147.068C167.536 146.912 167.44 146.602 167.558 146.376C167.675 146.149 167.963 146.091 168.2 146.247L171.99 148.737C172.226 148.893 172.322 149.202 172.204 149.429C172.148 149.536 172.054 149.606 171.944 149.633Z" fill="#003847"/>
<path d="M170.049 154.115C169.97 154.134 169.883 154.133 169.794 154.104L165.573 152.768C165.306 152.683 165.125 152.397 165.171 152.128C165.216 151.859 165.469 151.709 165.736 151.794L169.958 153.131C170.225 153.215 170.405 153.502 170.36 153.771C170.33 153.95 170.206 154.076 170.049 154.115Z" fill="#003847"/>
<path d="M168.299 158.76C168.222 158.779 168.137 158.777 168.05 158.751L164.273 157.604C164.006 157.523 163.822 157.238 163.864 156.968C163.906 156.699 164.156 156.545 164.425 156.626L168.202 157.773C168.47 157.854 168.653 158.139 168.611 158.409C168.583 158.592 168.459 158.72 168.299 158.76Z" fill="#003847"/>
<path d="M189.463 140.903C189.326 140.936 189.167 140.903 189.033 140.798C188.806 140.619 188.736 140.3 188.878 140.087L191.541 136.082C191.684 135.868 191.984 135.841 192.21 136.019C192.438 136.197 192.508 136.516 192.366 136.73L189.703 140.734C189.645 140.823 189.559 140.879 189.463 140.903Z" fill="#003847"/>
<path d="M195.056 142.829C194.947 142.856 194.823 142.84 194.707 142.775C194.462 142.637 194.344 142.333 194.444 142.095L196.039 138.283C196.14 138.044 196.419 137.964 196.663 138.101C196.908 138.239 197.026 138.543 196.926 138.781L195.331 142.593C195.278 142.718 195.177 142.8 195.056 142.829Z" fill="#003847"/>
<path d="M198.992 145.593C198.834 145.631 198.649 145.581 198.509 145.443C198.299 145.238 198.267 144.915 198.438 144.722L201.138 141.685C201.309 141.491 201.619 141.503 201.829 141.71C202.039 141.916 202.071 142.239 201.9 142.431L199.2 145.468C199.142 145.533 199.071 145.573 198.992 145.593Z" fill="#003847"/>
<path d="M202.938 148.605C202.778 148.644 202.591 148.592 202.451 148.451C202.242 148.242 202.214 147.919 202.388 147.729L204.835 145.053C205.009 144.864 205.319 144.879 205.527 145.087C205.735 145.295 205.763 145.619 205.589 145.808L203.142 148.485C203.086 148.546 203.015 148.586 202.938 148.605Z" fill="#003847"/>
<path d="M199.309 125.745L158.947 136.58C158.59 136.676 158.19 136.51 157.946 136.164L154.818 131.731C154.413 131.159 154.611 130.384 155.202 130.226L198.705 118.547C199.296 118.389 199.92 118.942 199.918 119.624L199.905 124.9C199.904 125.312 199.666 125.649 199.309 125.745Z" fill="#003847"/>
<path d="M167.988 92.6748C167.766 92.7401 167.524 92.5786 167.446 92.3147L154.257 47.3941C154.179 47.1297 154.296 46.8627 154.518 46.7975C154.74 46.7321 154.982 46.8937 155.06 47.1575L168.249 92.0782C168.327 92.342 168.21 92.6094 167.988 92.6748Z" fill="#003847"/>
<path d="M158.258 46.6491L151.537 48.3638C150.75 48.5646 149.867 48.0183 149.575 47.1499C149.283 46.2814 149.688 45.4065 150.475 45.2057L157.196 43.491C157.983 43.2902 158.866 43.8365 159.158 44.705C159.45 45.5735 159.045 46.4483 158.258 46.6491Z" fill="#003847"/>
<path d="M170.837 181.662C170.837 181.662 27.1579 212.945 12.822 188.519C6.13811 177.131 37.6019 160.209 37.6019 160.209C37.6019 160.209 16.6688 175.12 26.2205 180.985C44.0272 191.918 142.31 167.1 142.31 167.1L170.837 181.662Z" fill="white"/>
<path d="M85.3223 199.155L106.804 196.011C110.377 195.463 113.957 194.996 117.524 194.423C121.098 193.907 124.664 193.348 128.23 192.787C131.793 192.218 135.361 191.666 138.913 191.035C142.483 190.492 146.016 189.768 149.58 189.185C156.675 187.853 163.745 186.42 170.837 184.885C164.039 187.42 157.038 189.398 149.981 191.096C146.446 191.911 142.898 192.683 139.335 193.367C135.775 194.072 132.194 194.645 128.618 195.258C125.029 195.774 121.444 196.327 117.845 196.764C116.046 196.989 114.246 197.201 112.444 197.394C110.643 197.599 108.84 197.79 107.034 197.943C99.8174 198.612 92.579 199.098 85.3223 199.155Z" fill="white"/>
<path d="M31.0959 169.851C30.8107 170.262 30.5697 170.697 30.3662 171.141C30.1536 171.58 29.9785 172.033 29.8684 172.491C29.7416 172.947 29.7041 173.406 29.6983 173.847C29.7425 174.283 29.8033 174.707 30.0068 175.07C30.3512 175.816 31.0134 176.382 31.7897 176.798C32.5536 177.232 33.4459 177.52 34.3382 177.769C36.1586 178.211 38.0758 178.452 40.0072 178.555C41.9335 178.702 43.8891 178.727 45.8421 178.713C47.7993 178.718 49.7607 178.663 51.7271 178.583C53.6943 178.531 55.6623 178.421 57.6379 178.335C61.5881 178.165 65.5443 177.91 69.5496 177.894C65.6902 178.942 61.7766 179.74 57.8205 180.279C56.834 180.435 55.8433 180.563 54.8484 180.655C53.8536 180.753 52.8629 180.88 51.863 180.949C49.8674 181.103 47.8619 181.179 45.8504 181.213C41.8351 181.153 37.7422 180.998 33.7611 179.627C32.7804 179.237 31.7856 178.844 30.8983 178.165C30.0193 177.523 29.1862 176.625 28.8585 175.486C28.5241 174.348 28.7534 173.181 29.2221 172.251C29.6757 171.302 30.3454 170.512 31.0959 169.851Z" fill="white"/>
<path d="M192.831 188.519C191.746 187.264 176.64 176.718 175.506 175.928L178.085 175.484C178.085 175.484 191.894 187.215 192.831 188.519Z" fill="#FFC725"/>
<path opacity="0.5" d="M192.831 188.519C191.746 187.264 176.64 176.718 175.506 175.928L178.085 175.484C178.085 175.484 191.894 187.215 192.831 188.519Z" fill="white"/>
<path d="M192.88 188.614C192.88 188.621 192.88 188.628 192.88 188.628C192.88 188.642 192.874 188.656 192.866 188.677C192.746 188.945 191.711 189.177 190.555 189.332C190.541 189.332 190.527 189.332 190.513 189.339C189.097 189.515 187.526 189.572 187.272 189.402C186.947 189.177 176.049 183.724 169.376 180.391C169.285 180.349 169.201 180.307 169.115 180.264C169.087 180.25 169.066 180.236 169.059 180.236H169.052V180.229C168.728 180.068 168.411 179.912 168.108 179.757C166.974 179.194 166.03 178.722 165.36 178.391C164.677 178.052 164.29 177.855 164.29 177.855L175.506 175.932C176.147 176.376 181.247 179.934 185.757 183.181C185.912 183.287 186.067 183.4 186.222 183.512C186.644 183.815 187.053 184.111 187.462 184.401C190.202 186.394 192.436 188.064 192.83 188.522C192.845 188.543 192.859 188.564 192.865 188.579C192.873 188.592 192.88 188.606 192.88 188.614Z" fill="#FFC725"/>
<g opacity="0.1">
<path d="M192.88 188.614C192.88 188.621 192.88 188.628 192.88 188.628C192.88 188.642 192.874 188.656 192.866 188.677C192.746 188.945 191.711 189.177 190.556 189.332C190.541 189.332 190.527 189.332 190.513 189.339C189.097 189.515 187.526 189.572 187.272 189.402C186.94 189.177 175.759 183.583 169.115 180.264C170.207 180.793 184.545 187.69 187.462 184.4C190.202 186.394 192.436 188.063 192.83 188.521C192.845 188.542 192.859 188.564 192.865 188.578C192.873 188.592 192.88 188.606 192.88 188.614Z" fill="black"/>
</g>
<path d="M340.628 200.921V200.928C340.628 202.429 332.363 202.915 331.236 202.591C330.003 202.238 240.048 166.836 240.048 166.836L273.147 153.732C273.4 153.908 273.717 154.134 274.098 154.394C274.232 154.486 274.373 154.584 274.521 154.682C280.622 158.91 298.842 171.542 314.757 182.659C315.074 182.878 315.384 183.096 315.694 183.315C316.117 183.603 316.532 183.9 316.948 184.189C327.981 191.897 337.549 198.625 340.628 200.921Z" fill="#FFC725"/>
<path d="M340.628 200.921C332.568 194.905 280.024 158.494 273.147 153.732L277.339 152.069C277.339 152.069 338.55 198.625 340.395 200.478C340.55 200.64 340.628 200.781 340.628 200.921Z" fill="#FFC725"/>
<path opacity="0.5" d="M340.628 200.921C332.568 194.905 280.024 158.494 273.147 153.732L277.339 152.069C277.339 152.069 338.55 198.625 340.395 200.478C340.55 200.64 340.628 200.781 340.628 200.921Z" fill="white"/>
<g opacity="0.5">
<path opacity="0.1" d="M340.628 200.921V200.928C340.628 202.429 332.363 202.915 331.236 202.591C330.003 202.238 240.048 166.836 240.048 166.836L273.147 153.732C273.147 153.732 264.96 163.095 284.384 177.496C297.622 187.31 311.713 189.346 316.948 184.189C327.981 191.897 337.549 198.625 340.628 200.921Z" fill="black"/>
</g>
<path d="M265.611 178.45C263.054 179.692 260.273 180.667 260.072 178.098C259.989 177.045 260.806 175.918 264.919 173.938C265.883 173.474 268.239 172.442 268.933 174.579C269.6 176.636 266.573 177.981 265.611 178.45Z" fill="#FFC725"/>
<path opacity="0.1" d="M265.611 178.45C263.054 179.692 260.273 180.667 260.072 178.098C259.989 177.045 260.806 175.918 264.919 173.938C265.883 173.474 268.239 172.442 268.933 174.579C269.6 176.636 266.573 177.981 265.611 178.45Z" fill="black"/>
<path d="M286.482 186.993C283.926 188.234 281.145 189.21 280.944 186.641C280.862 185.587 281.677 184.461 285.791 182.481C286.756 182.017 289.112 180.985 289.806 183.121C290.473 185.179 287.446 186.525 286.482 186.993Z" fill="#FFC725"/>
<path opacity="0.1" d="M286.482 186.993C283.926 188.234 281.145 189.21 280.944 186.641C280.862 185.587 281.677 184.461 285.791 182.481C286.756 182.017 289.112 180.985 289.806 183.121C290.473 185.179 287.446 186.525 286.482 186.993Z" fill="black"/>
<path d="M307.355 195.534C304.798 196.776 302.017 197.752 301.816 195.182C301.734 194.128 302.55 193.003 306.663 191.023C307.628 190.558 309.984 189.527 310.678 191.663C311.345 193.721 308.318 195.066 307.355 195.534Z" fill="#FFC725"/>
<path opacity="0.1" d="M307.355 195.534C304.798 196.776 302.017 197.752 301.816 195.182C301.734 194.128 302.55 193.003 306.663 191.023C307.628 190.558 309.984 189.527 310.678 191.663C311.345 193.721 308.318 195.066 307.355 195.534Z" fill="black"/>
<path d="M300.532 173.092C298.017 177.566 292.311 179.179 288.696 180.623C279.1 184.456 272.139 186.611 268.708 177.897C268.265 176.769 268.018 175.72 267.94 174.741C267.377 168.168 274.183 164.884 277.642 163.067C277.649 163.06 277.649 163.06 277.649 163.06C281.82 160.862 284.772 159.439 286.97 158.516C290.555 157.001 292.155 156.81 293.804 156.755C295.741 156.691 300.123 157.177 301.561 165.216C302.153 168.562 301.66 171.105 300.532 173.092Z" fill="#FFC725"/>
<path d="M300.646 166.842C300.646 171.739 297.584 175.708 293.807 175.708C290.029 175.708 286.967 171.738 286.967 166.842C286.967 161.947 290.029 157.977 293.807 157.977C297.584 157.977 300.646 161.947 300.646 166.842Z" fill="#263238"/>
<path d="M299.85 166.843C299.85 171.169 297.145 174.676 293.807 174.676C290.469 174.676 287.763 171.168 287.763 166.843C287.763 162.517 290.469 159.01 293.807 159.01C297.145 159.01 299.85 162.517 299.85 166.843Z" fill="#455A64"/>
<path d="M157.329 164.498L155.744 165.075L152.179 166.372C148.981 164.984 144.584 163.089 139.835 161.046C127.879 155.91 113.732 149.879 111.006 148.956C111.104 148.984 111.224 149.019 111.351 149.062C111.443 149.09 111.548 149.125 111.661 149.16C111.788 149.203 111.929 149.244 112.077 149.294C112.154 149.322 112.232 149.343 112.316 149.371C112.598 149.463 112.915 149.561 113.26 149.674C113.563 149.772 113.88 149.878 114.225 149.991C115.028 150.251 115.937 150.554 116.938 150.885C117.24 150.991 117.55 151.09 117.867 151.196C118.149 151.287 118.438 151.386 118.734 151.484C118.896 151.541 119.051 151.59 119.212 151.639C119.691 151.801 120.177 151.964 120.685 152.132C121.009 152.245 121.333 152.351 121.664 152.463C125.489 153.746 129.936 155.239 134.36 156.733L135.565 157.135C137.157 157.677 138.749 158.213 140.292 158.734C143.223 159.728 146.013 160.665 148.451 161.489C148.846 161.623 149.226 161.756 149.6 161.883C150.917 162.327 152.115 162.729 153.15 163.081L153.165 163.088C153.482 163.193 153.784 163.299 154.074 163.398C154.221 163.448 154.362 163.497 154.496 163.539C154.567 163.568 154.637 163.589 154.707 163.609C156.364 164.173 157.329 164.498 157.329 164.498Z" fill="#FFC725"/>
<path opacity="0.5" d="M157.329 164.498L155.744 165.075L152.179 166.372C148.981 164.984 144.584 163.089 139.835 161.046C127.879 155.91 113.732 149.879 111.006 148.956C111.104 148.984 111.224 149.019 111.351 149.062C111.443 149.09 111.548 149.125 111.661 149.16C111.788 149.203 111.929 149.244 112.077 149.294C112.154 149.322 112.232 149.343 112.316 149.371C112.598 149.463 112.915 149.561 113.26 149.674C113.563 149.772 113.88 149.878 114.225 149.991C115.028 150.251 115.937 150.554 116.938 150.885C117.24 150.991 117.55 151.09 117.867 151.196C118.149 151.287 118.438 151.386 118.734 151.484C118.896 151.541 119.051 151.59 119.212 151.639C119.691 151.801 120.177 151.964 120.685 152.132C121.009 152.245 121.333 152.351 121.664 152.463C125.489 153.746 129.936 155.239 134.36 156.733L135.565 157.135C137.157 157.677 138.749 158.213 140.292 158.734C143.223 159.728 146.013 160.665 148.451 161.489C148.846 161.623 149.226 161.756 149.6 161.883C150.917 162.327 152.115 162.729 153.15 163.081L153.165 163.088C153.482 163.193 153.784 163.299 154.074 163.398C154.221 163.448 154.362 163.497 154.496 163.539C154.567 163.568 154.637 163.589 154.707 163.609C156.364 164.173 157.329 164.498 157.329 164.498Z" fill="white"/>
<path d="M152.179 166.371L142.618 169.851C142.618 169.851 121.271 159.945 108.54 153.738C108.448 153.696 108.399 153.675 108.399 153.675C108.343 153.647 108.287 153.618 108.23 153.591C106.898 152.943 105.666 152.336 104.567 151.794C101.277 150.146 99.1911 149.026 99.2687 148.871C99.6206 148.166 107.547 147.99 110.718 148.871C110.746 148.877 110.767 148.885 110.803 148.892C110.859 148.906 110.929 148.927 111.007 148.955C113.642 149.85 126.944 155.507 138.625 160.523C138.716 160.565 138.801 160.601 138.892 160.636C139.209 160.777 139.526 160.91 139.836 161.044C144.584 163.088 148.98 164.983 152.179 166.371Z" fill="#FFC725"/>
<g opacity="0.1">
<path d="M152.179 166.371L142.619 169.851C142.619 169.851 121.271 159.945 108.541 153.738C110.647 154.633 132.25 164.15 137.578 162.829C138.835 162.517 139.555 161.791 139.837 161.044C144.584 163.088 148.981 164.983 152.179 166.371Z" fill="black"/>
</g>
<path d="M176.767 152.745L153.574 163.898C153.574 163.898 153.813 144.017 153.989 129.714C153.996 129.221 154.003 128.735 154.01 128.256C154.017 127.861 154.017 127.473 154.024 127.093C154.087 122.196 154.144 118.251 154.165 116.461C154.25 110.706 154.87 109.536 156.392 110.473C157.92 111.41 164.691 117.3 166.727 119.928C168.397 122.084 172.096 135.139 174.505 144.115C174.526 144.193 174.547 144.263 174.562 144.34C174.703 144.861 174.844 145.369 174.97 145.855C176.041 149.892 176.767 152.745 176.767 152.745Z" fill="#FFC725"/>
<g opacity="0.1">
<path d="M176.767 152.745L153.574 163.898C153.574 163.898 153.813 144.017 153.989 129.714C157.406 137.33 164.149 147.736 174.97 145.855C176.041 149.892 176.767 152.745 176.767 152.745Z" fill="black"/>
</g>
<path d="M137.372 176.061C134.984 170.092 145.122 164.67 156.63 159.504C168.137 154.337 281.567 104.315 298.006 99.8531C314.445 95.3908 333.591 101.502 336.829 110.891C341.688 124.982 321.228 136.787 247.749 167.254C238.121 171.246 195.055 181.585 170.838 181.663C144.946 181.746 138.546 178.996 137.372 176.061Z" fill="#FFC725"/>
<path opacity="0.5" d="M137.372 176.061C134.984 170.092 145.122 164.67 156.63 159.504C168.137 154.337 281.567 104.315 298.006 99.8531C314.445 95.3908 333.591 101.502 336.829 110.891C341.688 124.982 321.228 136.787 247.749 167.254C238.121 171.246 195.055 181.585 170.838 181.663C144.946 181.746 138.546 178.996 137.372 176.061Z" fill="white"/>
<path opacity="0.1" d="M247.751 167.255C238.12 171.25 195.052 181.585 170.837 181.663C144.946 181.748 138.549 179 137.372 176.062C136.125 172.941 138.302 169.968 142.311 167.1C142.283 167.685 142.381 168.269 142.622 168.861C143.692 171.531 149.498 174.026 172.987 173.948C194.962 173.878 226.567 156.082 235.303 152.461C301.973 124.815 328.013 122.517 323.603 109.73C321.686 104.164 313.606 99.8661 304.066 98.6894C318.847 96.9207 333.988 102.635 336.827 110.892C341.687 124.983 321.228 136.79 247.751 167.255Z" fill="black"/>
<path d="M173.33 156.375L175.936 155.248V159.08L173.33 160.208V156.375Z" fill="#455A64"/>
<path d="M178.085 154.318L180.868 153.113V156.946L178.085 158.151V154.318Z" fill="#455A64"/>
<path d="M183.017 152.183L185.8 150.979V154.811L183.017 156.016V152.183Z" fill="#455A64"/>
<path d="M187.949 150.048L190.732 148.844V152.676L187.949 153.881V150.048Z" fill="#455A64"/>
<path d="M192.881 147.913L195.664 146.709V150.542L192.881 151.746V147.913Z" fill="#455A64"/>
<path d="M197.812 145.779L200.595 144.574V148.407L197.812 149.612V145.779Z" fill="#455A64"/>
<path d="M202.744 143.644L205.527 142.44V146.272L202.744 147.477V143.644Z" fill="#455A64"/>
<path d="M207.677 141.51L210.459 140.305V144.138L207.677 145.343V141.51Z" fill="#455A64"/>
<path d="M212.608 139.375L215.391 138.17V142.003L212.608 143.208V139.375Z" fill="#455A64"/>
<path d="M217.54 137.24L220.322 136.035V139.868L217.54 141.073V137.24Z" fill="#455A64"/>
<path d="M222.472 135.105L225.255 133.9V137.733L222.472 138.938V135.105Z" fill="#455A64"/>
<path d="M227.403 132.971L230.186 131.766V135.598L227.403 136.803V132.971Z" fill="#455A64"/>
<path d="M232.334 130.836L235.118 129.632V133.463L232.334 134.668V130.836Z" fill="#455A64"/>
<path d="M237.267 128.701L240.05 127.497V131.329L237.267 132.533V128.701Z" fill="#455A64"/>
<path d="M242.198 126.566L244.982 125.362V129.195L242.198 130.399V126.566Z" fill="#455A64"/>
<path d="M247.13 124.432L249.913 123.227V127.06L247.13 128.265V124.432Z" fill="#455A64"/>
<path d="M252.061 122.297L254.844 121.092V124.925L252.061 126.13V122.297Z" fill="#455A64"/>
<path d="M256.993 120.162L259.776 118.957V122.79L256.993 123.995V120.162Z" fill="#455A64"/>
<path d="M261.926 118.028L264.708 116.823V120.655L261.926 121.86V118.028Z" fill="#455A64"/>
<path d="M266.857 115.893L269.639 114.688V118.52L266.857 119.725V115.893Z" fill="#455A64"/>
<path d="M271.789 113.758L274.572 112.553V116.386L271.789 117.591V113.758Z" fill="#455A64"/>
<path d="M279.503 110.418V114.251L276.72 115.456V111.623L279.503 110.418Z" fill="#455A64"/>
<path d="M284.435 108.284V112.116L281.652 113.321V109.488L284.435 108.284Z" fill="#455A64"/>
<path d="M289.367 106.149V109.982L286.584 111.186V107.353L289.367 106.149Z" fill="#455A64"/>
<path d="M294.299 104.014V107.847L291.516 109.051V105.219L294.299 104.014Z" fill="#455A64"/>
<path d="M307.191 102.447C308.713 101.235 310.517 100.509 312.362 100.037V102.587C310.699 102.524 309.002 102.482 307.191 102.447Z" fill="#455A64"/>
<path d="M318.414 99.4311V102.954C317.117 102.833 315.821 102.756 314.51 102.693V99.6137C315.801 99.4311 317.111 99.3677 318.414 99.4311Z" fill="#455A64"/>
<path d="M330.821 104.405C329.729 104.377 328.729 104.187 327.722 104.067C326.708 103.968 325.749 103.771 324.77 103.679C323.354 103.461 321.952 103.305 320.563 103.172V99.6562C322.261 99.9031 323.931 100.325 325.495 101.002C326.488 101.376 327.411 101.911 328.32 102.447C328.771 102.7 329.194 103.039 329.617 103.37C330.032 103.701 330.441 104.032 330.821 104.405Z" fill="#455A64"/>
<path d="M242.198 135.634L209.51 151.362C209.51 151.362 157.554 123.509 120.27 103.155C120.228 103.134 120.2 103.12 120.185 103.113L120.171 103.106C100.269 92.2343 85.0789 83.7942 85.3257 83.4698C85.9528 82.6242 95.964 82.7301 99.9235 83.2655C100.395 83.3222 100.783 83.3923 101.058 83.4698C102.735 83.9276 161.521 105.705 202.687 120.972C225.042 129.265 242.198 135.634 242.198 135.634Z" fill="#FFC725"/>
<g opacity="0.1">
<path d="M242.197 135.634L209.51 151.362C209.51 151.362 157.553 123.509 120.27 103.155C123.187 104.628 190.026 138.312 198.755 133.253C202.052 131.343 202.912 126.419 202.686 120.973C225.041 129.265 242.197 135.634 242.197 135.634Z" fill="black"/>
</g>
<path d="M246.969 133.471L237.262 138.141C212.427 127.735 109.131 86.8938 100.48 83.4697C100.382 83.4272 100.29 83.3921 100.213 83.3638C100.128 83.3354 100.057 83.3071 100.002 83.2937C99.9666 83.2796 99.9449 83.2729 99.9241 83.2654C100.396 83.3221 100.784 83.3921 101.058 83.4697C103.643 84.1744 246.969 133.471 246.969 133.471Z" fill="#FFC725"/>
<path opacity="0.5" d="M246.969 133.471L237.262 138.141C212.427 127.735 109.131 86.8938 100.48 83.4697C100.382 83.4272 100.29 83.3921 100.213 83.3638C100.128 83.3354 100.057 83.3071 100.002 83.2937C99.9666 83.2796 99.9449 83.2729 99.9241 83.2654C100.396 83.3221 100.784 83.3921 101.058 83.4697C103.643 84.1744 246.969 133.471 246.969 133.471Z" fill="white"/>
<path d="M176.962 134.228C173.766 135.78 170.29 136.999 170.04 133.788C169.937 132.472 170.957 131.064 176.098 128.59C177.304 128.009 180.249 126.719 181.115 129.39C181.949 131.961 178.166 133.643 176.962 134.228Z" fill="#FFC725"/>
<path opacity="0.1" d="M176.962 134.228C173.766 135.78 170.29 136.999 170.04 133.788C169.937 132.472 170.957 131.064 176.098 128.59C177.304 128.009 180.249 126.719 181.115 129.39C181.949 131.961 178.166 133.643 176.962 134.228Z" fill="black"/>
<path d="M149.302 120.255C146.106 121.807 142.63 123.026 142.38 119.814C142.277 118.498 143.297 117.09 148.438 114.616C149.644 114.035 152.589 112.745 153.455 115.416C154.289 117.988 150.506 119.67 149.302 120.255Z" fill="#FFC725"/>
<path opacity="0.1" d="M149.302 120.255C146.106 121.807 142.63 123.026 142.38 119.814C142.277 118.498 143.297 117.09 148.438 114.616C149.644 114.035 152.589 112.745 153.455 115.416C154.289 117.988 150.506 119.67 149.302 120.255Z" fill="black"/>
<path d="M121.551 106.114C118.574 107.56 115.336 108.695 115.102 105.704C115.006 104.477 115.957 103.166 120.746 100.861C121.87 100.32 124.613 99.1191 125.42 101.608C126.197 104.003 122.672 105.569 121.551 106.114Z" fill="#FFC725"/>
<path opacity="0.1" d="M121.551 106.114C118.574 107.56 115.336 108.695 115.102 105.704C115.006 104.477 115.957 103.166 120.746 100.861C121.87 100.32 124.613 99.1191 125.42 101.608C126.197 104.003 122.672 105.569 121.551 106.114Z" fill="black"/>
<path d="M218.232 131.064C215.717 135.538 210.01 137.152 206.396 138.595C196.8 142.428 189.84 144.583 186.409 135.868C185.965 134.741 185.718 133.692 185.641 132.712C185.077 126.138 191.883 122.855 195.342 121.038C195.349 121.03 195.349 121.03 195.349 121.03C199.52 118.832 202.472 117.409 204.669 116.486C208.255 114.972 209.855 114.781 211.503 114.725C213.44 114.662 217.823 115.148 219.26 123.187C219.853 126.534 219.36 129.078 218.232 131.064Z" fill="#FFC725"/>
<path d="M211.507 133.68C215.285 133.68 218.347 129.711 218.347 124.815C218.347 119.918 215.285 115.949 211.507 115.949C207.73 115.949 204.667 119.918 204.667 124.815C204.667 129.711 207.73 133.68 211.507 133.68Z" fill="#263238"/>
<path d="M217.55 124.815C217.55 129.141 214.844 132.648 211.507 132.648C208.17 132.648 205.464 129.14 205.464 124.815C205.464 120.489 208.17 116.982 211.507 116.982C214.844 116.982 217.55 120.488 217.55 124.815Z" fill="#455A64"/>
<path d="M114.226 149.991C113.888 149.878 113.564 149.772 113.261 149.674C113.564 149.772 113.881 149.878 114.226 149.991Z" fill="#FFC725"/>
<path d="M2.87428 120.217C2.87428 120.217 77.7849 121.192 84.0334 106.434C86.9466 99.5538 70.0939 93.9082 70.0939 93.9082C70.0939 93.9082 81.0011 99.1013 76.8422 103.853C67.8721 114.101 2.87428 120.217 2.87428 120.217Z" fill="white"/>
<path d="M48.1407 118.539C44.3731 119.336 40.5954 119.892 36.8202 120.343C35.8762 120.464 34.9322 120.563 33.9888 120.655C33.0451 120.753 32.1013 120.84 31.1577 120.921C29.2704 121.088 27.386 121.189 25.5002 121.311C23.6172 121.379 21.7336 121.468 19.8547 121.482C17.9758 121.507 16.1 121.482 14.2289 121.432C10.491 121.291 6.76939 120.989 3.12815 120.351C6.87744 120.398 10.6101 120.388 14.3511 120.321C16.2267 120.239 18.0925 120.239 19.9689 120.134C21.8403 120.08 23.7161 119.98 25.591 119.89C27.4663 119.796 29.3417 119.7 31.2194 119.579C33.0956 119.491 34.9748 119.343 36.8527 119.24L48.1407 118.539Z" fill="white"/>
<path d="M73.7436 99.7722C74.1525 100.058 74.4885 100.486 74.6475 101.033C74.7405 101.302 74.7453 101.607 74.7337 101.912C74.6978 102.217 74.6267 102.526 74.5067 102.816C74.2659 103.398 73.8964 103.908 73.4905 104.345C73.0899 104.798 72.6337 105.162 72.1794 105.523C70.3261 106.903 68.2987 107.787 66.2819 108.564C65.2665 108.932 64.2482 109.271 63.2251 109.568C62.7134 109.718 62.2002 109.853 61.6871 109.983C61.1747 110.118 60.6613 110.249 60.146 110.352C58.0899 110.824 56.0237 111.146 53.9553 111.334C55.9752 110.597 57.9986 109.991 60.0079 109.335C61.0103 108.997 62.0184 108.702 63.0132 108.346C64.0128 108.017 65.0081 107.675 65.9912 107.297C66.9805 106.944 67.957 106.547 68.9163 106.117C69.8771 105.693 70.8181 105.214 71.7106 104.665C72.1492 104.38 72.5792 104.077 72.9668 103.733C73.3653 103.399 73.7119 103.009 73.9622 102.574C74.0933 102.357 74.1832 102.126 74.2525 101.886C74.2979 101.646 74.335 101.395 74.3052 101.147C74.2607 100.652 74.0581 100.166 73.7436 99.7722Z" fill="white"/>
<path d="M76.5531 23.3608C73.5156 25.9373 70.8744 29.3871 70.4254 33.4408C70.3911 33.8378 69.8079 33.9201 69.6601 33.5566C68.5448 31.0137 65.8724 28.5019 62.906 29.5484C62.4698 29.618 61.9297 29.9247 61.5183 30.0829L60.2161 30.8563C61.7404 29.4622 63.7872 28.3613 65.9115 28.966C68.0215 29.5453 69.4771 31.3452 70.3951 33.2458L69.6305 33.3617C70.1059 29.1442 73.0163 25.5259 76.5531 23.3608Z" fill="#1C1716"/>
<path d="M30.2634 20.9778C32.3526 20.2651 36.4806 18.9293 37.2699 21.9884L36.5118 21.8725C36.8369 21.2869 37.1996 20.7748 37.6015 20.2715C38.7759 18.8055 40.3937 17.4985 42.3223 17.3379C41.7095 17.4657 41.1303 17.691 40.6054 18.009C39.0699 18.9909 37.9626 20.5727 37.2364 22.2105C37.087 22.586 36.5022 22.4941 36.4782 22.0946C36.1043 19.6587 31.9627 20.5943 30.2634 20.9778Z" fill="#1C1716"/>
<path d="M89.7224 33.6997C87.7898 34.7503 84.4711 36.0981 84.6724 38.669C84.7379 39.0221 84.2801 39.2666 84.0221 39.0261C82.8269 38.0346 81.2722 37.2892 79.6808 37.3611C79.1343 37.3524 78.6142 37.5329 78.075 37.6991C80.0475 36.2554 82.7886 36.9561 84.5478 38.4421L83.8991 38.808C83.5388 35.6858 87.2369 34.235 89.7224 33.6997Z" fill="#1C1716"/>
</svg>
