<svg width="114" height="239" viewBox="0 0 114 239" fill="none" xmlns="http://www.w3.org/2000/svg">
<g id="eifalTower">
<g id="Group">
<path id="Vector" d="M56.57 207.537C56.106 207.537 55.729 207.161 55.729 206.696V188.503C55.729 188.039 56.106 187.662 56.57 187.662C57.034 187.662 57.411 188.039 57.411 188.503V206.696C57.411 207.161 57.034 207.537 56.57 207.537Z" fill="#003847"/>
</g>
<g id="Group_2">
<path id="Vector_2" d="M111.829 238.599C111.714 238.599 111.597 238.577 111.485 238.529L93.2349 230.789C92.9649 230.674 92.7689 230.433 92.7139 230.144C92.6579 229.856 92.7489 229.559 92.9579 229.352L102.673 219.689L85.2299 215.496C84.8679 215.409 84.6009 215.105 84.5589 214.736C84.5189 214.367 84.7129 214.011 85.0459 213.848L96.3349 208.297L78.1619 207.576C77.7449 207.56 77.3979 207.253 77.3279 206.843C77.2589 206.432 77.4869 206.028 77.8749 205.876L89.9189 201.142L72.5119 203.278C72.1169 203.334 71.7279 203.099 71.5819 202.722C71.4369 202.346 71.5649 201.918 71.8939 201.685L86.5059 191.317L64.0529 199.016C63.7039 199.134 63.3199 199.025 63.0859 198.741C62.8519 198.457 62.8199 198.058 63.0039 197.739L66.4459 191.806L57.0989 198.817C56.7859 199.053 56.3549 199.053 56.0409 198.817L46.6939 191.806L50.1359 197.739C50.3209 198.057 50.2879 198.457 50.0549 198.741C49.8209 199.025 49.4359 199.133 49.0879 199.016L26.6339 191.316L41.2449 201.685C41.5739 201.918 41.7029 202.346 41.5569 202.722C41.4109 203.099 41.0319 203.339 40.6269 203.278L23.2199 201.142L35.2639 205.876C35.6519 206.028 35.8799 206.432 35.8109 206.843C35.7419 207.254 35.3939 207.56 34.9769 207.576L16.8039 208.297L28.0929 213.848C28.4259 214.012 28.6209 214.367 28.5799 214.736C28.5389 215.105 28.2709 215.409 27.9099 215.496L10.4669 219.689L20.1819 229.352C20.3899 229.559 20.4809 229.856 20.4259 230.144C20.3699 230.432 20.1749 230.674 19.9049 230.789L1.65491 238.529C1.20791 238.718 0.6889 238.509 0.4989 238.062C0.3089 237.614 0.517895 237.096 0.965895 236.906L18.0089 229.678L8.1049 219.826C7.8779 219.6 7.7919 219.271 7.8779 218.963C7.9639 218.655 8.2099 218.418 8.5209 218.343L25.1249 214.351L12.9069 208.344C12.5449 208.166 12.3499 207.765 12.4339 207.37C12.5179 206.975 12.8579 206.688 13.2619 206.672L30.7159 205.979L16.1099 200.238C15.6969 200.075 15.4689 199.631 15.5779 199.201C15.6859 198.771 16.0909 198.481 16.5399 198.543L37.3809 201.101L20.6369 189.219C20.2799 188.966 20.1629 188.488 20.3629 188.098C20.5619 187.708 21.0189 187.524 21.4329 187.666L47.4279 196.579L42.9969 188.942C42.7869 188.579 42.8599 188.119 43.1739 187.841C43.4859 187.563 43.9519 187.543 44.2879 187.795L56.5699 197.01L68.8529 187.798C69.1869 187.547 69.6539 187.566 69.9669 187.844C70.2799 188.123 70.3539 188.583 70.1439 188.945L65.7129 196.582L91.7069 187.669C92.1179 187.527 92.5769 187.71 92.7769 188.101C92.9769 188.491 92.8599 188.968 92.5029 189.222L75.7589 201.104L96.5999 198.546C97.0329 198.484 97.4529 198.774 97.5619 199.204C97.6699 199.634 97.4429 200.079 97.0299 200.241L82.4239 205.982L99.8779 206.675C100.281 206.691 100.622 206.978 100.705 207.373C100.788 207.767 100.593 208.168 100.232 208.347L88.0139 214.354L104.618 218.346C104.929 218.421 105.175 218.658 105.261 218.966C105.347 219.273 105.26 219.603 105.034 219.829L95.1299 229.681L112.173 236.909C112.621 237.099 112.831 237.617 112.64 238.065C112.498 238.398 112.172 238.599 111.829 238.599Z" fill="#005E78"/>
</g>
<g id="Group_3">
<path id="Vector_3" d="M38.5772 173.074C38.3562 173.074 38.1352 172.991 37.9642 172.826L28.7142 163.864C28.5122 163.668 28.4152 163.388 28.4552 163.109C28.4942 162.831 28.6642 162.587 28.9122 162.454L40.1072 156.459L33.0782 146.918C32.9182 146.7 32.8662 146.421 32.9382 146.16C33.0102 145.899 33.1982 145.686 33.4482 145.582L43.6661 141.313L36.4432 133.316C36.2482 133.1 36.1722 132.802 36.2402 132.52C36.3082 132.238 36.5102 132.007 36.7822 131.902L46.1902 128.293L39.2722 119.155C39.0812 118.903 39.0402 118.568 39.1652 118.277C39.2892 117.986 39.5602 117.784 39.8742 117.748L47.1661 116.9L41.3052 109.682C41.1122 109.444 41.0562 109.123 41.1582 108.835C41.2592 108.546 41.5032 108.331 41.8022 108.266L54.3462 105.542L43.5162 98.35C43.2662 98.184 43.1182 97.901 43.1222 97.602C43.1272 97.301 43.2842 97.024 43.5402 96.866L54.8582 89.868L46.0062 84.707C45.7612 84.565 45.6002 84.313 45.5732 84.031C45.5452 83.749 45.6552 83.471 45.8672 83.284L54.9972 75.235L47.6772 71.6499C47.4082 71.5189 47.2252 71.26 47.1892 70.963C47.1542 70.666 47.2712 70.372 47.5022 70.181L55.3992 63.627L49.4562 54.646C49.2112 54.275 49.2802 53.78 49.6172 53.49L55.2692 48.645L51.0012 44.425C50.8272 44.253 50.7322 44.016 50.7402 43.771C50.7482 43.526 50.8572 43.295 51.0422 43.135L55.2781 39.44L51.2962 35.472C50.9512 35.128 50.9502 34.571 51.2942 34.225C51.6382 33.88 52.1961 33.879 52.5411 34.223L57.1922 38.858C57.3652 39.031 57.4592 39.267 57.4512 39.512C57.4432 39.756 57.3342 39.986 57.1492 40.147L52.9161 43.84L57.1902 48.065C57.3652 48.238 57.4602 48.477 57.4512 48.723C57.4422 48.969 57.3312 49.2 57.1442 49.361L51.3562 54.323L57.3061 63.315C57.5541 63.69 57.4802 64.192 57.1342 64.479L49.6782 70.667L56.9592 74.233C57.2232 74.362 57.4062 74.615 57.4452 74.907C57.4842 75.199 57.3752 75.491 57.1542 75.685L47.9502 83.799L57.0152 89.084C57.2832 89.24 57.4482 89.524 57.4532 89.834C57.4572 90.143 57.2982 90.433 57.0352 90.595L45.6381 97.642L57.0592 105.227C57.3542 105.423 57.5032 105.776 57.4382 106.124C57.3722 106.472 57.1052 106.747 56.7592 106.822L43.5782 109.684L49.5472 117.036C49.7502 117.286 49.8001 117.626 49.6791 117.924C49.5581 118.222 49.2842 118.43 48.9642 118.467L41.6092 119.322L48.3041 128.165C48.4711 128.386 48.5252 128.672 48.4492 128.939C48.3732 129.206 48.1762 129.421 47.9172 129.52L38.6132 133.089L45.8092 141.057C46.0002 141.269 46.0782 141.561 46.0152 141.84C45.9522 142.119 45.7582 142.351 45.4942 142.461L35.1622 146.777L42.1292 156.233C42.2812 156.439 42.3362 156.701 42.2792 156.95C42.2232 157.2 42.0612 157.412 41.8352 157.533L30.8072 163.438L39.1902 171.56C39.5392 171.899 39.5492 172.457 39.2102 172.806C39.0372 172.984 38.8072 173.074 38.5772 173.074Z" fill="#005E78"/>
</g>
<g id="Group_4">
<path id="Vector_4" d="M74.5631 173.074C74.3331 173.074 74.1031 172.985 73.9301 172.806C73.5911 172.457 73.5991 171.898 73.9491 171.56L82.3321 163.438L71.3051 157.533C71.0791 157.413 70.9181 157.2 70.8611 156.95C70.8051 156.701 70.8591 156.439 71.0121 156.233L77.9771 146.777L67.6451 142.461C67.3821 142.351 67.1871 142.119 67.1251 141.84C67.0621 141.561 67.1391 141.269 67.3311 141.057L74.5281 133.089L65.2241 129.52C64.9661 129.421 64.7691 129.206 64.6921 128.939C64.6161 128.672 64.6701 128.386 64.8371 128.165L71.5331 119.322L64.1771 118.467C63.8581 118.43 63.5831 118.222 63.4621 117.924C63.3411 117.626 63.3921 117.286 63.5941 117.036L69.5631 109.684L56.3831 106.822C56.0371 106.747 55.7701 106.472 55.7041 106.124C55.6391 105.776 55.7871 105.422 56.0831 105.227L67.5041 97.6419L56.1071 90.5949C55.8441 90.4319 55.6851 90.1429 55.6891 89.8339C55.6931 89.5249 55.8591 89.2399 56.1271 89.0839L65.1931 83.7989L55.9891 75.6849C55.7681 75.4909 55.6591 75.1979 55.6981 74.9069C55.7371 74.6149 55.9201 74.3619 56.1841 74.2329L63.4651 70.667L56.0091 64.4789C55.6631 64.1919 55.5881 63.6899 55.8371 63.3149L61.7861 54.3229L55.9981 49.3609C55.8111 49.2009 55.7001 48.9689 55.6911 48.7229C55.6821 48.4759 55.7771 48.2379 55.9521 48.0649L60.2261 43.8399L55.9921 40.1469C55.8081 39.9869 55.6991 39.7569 55.6901 39.5119C55.6821 39.2679 55.7761 39.0309 55.9491 38.8579L60.6001 34.2229C60.9451 33.8789 61.5031 33.8809 61.8461 34.2249C62.1901 34.5699 62.1881 35.1279 61.8441 35.4719L57.8621 39.4399L62.0991 43.1349C62.2841 43.2959 62.3931 43.5269 62.4011 43.7709C62.4081 44.0159 62.3131 44.2529 62.1391 44.4259L57.8711 48.6449L63.5221 53.4899C63.8601 53.7789 63.9291 54.2749 63.6841 54.6459L57.7411 63.6269L65.6371 70.1809C65.8671 70.3719 65.9851 70.6669 65.9491 70.9629C65.9141 71.2599 65.7301 71.5189 65.4611 71.6499L58.1411 75.2349L67.2721 83.2839C67.4851 83.4709 67.5941 83.749 67.5661 84.031C67.5391 84.313 67.3781 84.5639 67.1331 84.7069L58.2811 89.8679L69.5991 96.8659C69.8541 97.0239 70.0111 97.301 70.0161 97.602C70.0211 97.902 69.8721 98.184 69.6221 98.35L58.7931 105.542L71.3361 108.266C71.6351 108.331 71.8791 108.547 71.9811 108.835C72.0831 109.124 72.0271 109.445 71.8341 109.682L65.9721 116.9L73.2661 117.748C73.5801 117.784 73.8501 117.986 73.9751 118.277C74.0991 118.568 74.0581 118.903 73.8671 119.155L66.9491 128.293L76.3581 131.902C76.6291 132.006 76.8311 132.237 76.8991 132.52C76.9661 132.803 76.8901 133.101 76.6961 133.316L69.4731 141.313L79.6911 145.581C79.9411 145.685 80.1281 145.899 80.2011 146.159C80.2731 146.419 80.2221 146.699 80.0611 146.917L73.0341 156.458L84.2281 162.453C84.4771 162.586 84.6461 162.829 84.6851 163.108C84.7241 163.387 84.6271 163.667 84.4261 163.863L75.1761 172.825C75.0061 172.991 74.7841 173.074 74.5631 173.074Z" fill="#005E78"/>
</g>
<g id="Group_5">
<path id="Vector_5" d="M61.0002 30.6101C60.8522 30.6101 60.7032 30.5711 60.5672 30.4901L51.7052 25.1561C51.3072 24.9161 51.1792 24.3991 51.4182 24.0011C51.6572 23.6031 52.1752 23.4751 52.5732 23.7141L61.4352 29.0481C61.8332 29.2881 61.9622 29.8051 61.7222 30.2031C61.5642 30.4651 61.2862 30.6101 61.0002 30.6101Z" fill="#003847"/>
</g>
<g id="Group_6">
<path id="Vector_6" d="M52.1402 30.61C51.8552 30.61 51.5762 30.465 51.4182 30.202C51.1792 29.804 51.3072 29.287 51.7052 29.047L60.5672 23.713C60.9662 23.474 61.4822 23.602 61.7212 24C61.9612 24.398 61.8322 24.915 61.4342 25.155L52.5722 30.489C52.4372 30.571 52.2872 30.61 52.1402 30.61Z" fill="#003847"/>
</g>
<g id="Group_7">
<path id="Vector_7" d="M113.14 238.599H89.3L89.074 238.055C88.951 237.759 76.579 208.458 56.57 208.458C36.547 208.458 24.189 237.759 24.066 238.055L23.841 238.599H0L0.494003 237.385C0.640003 237.025 15.21 201.205 22.777 179.742C46.216 113.25 51.355 30.544 51.404 29.716L51.453 28.887H61.687L61.736 29.716C61.785 30.543 66.926 113.257 90.363 179.742C97.93 201.207 112.499 237.025 112.645 237.385L113.14 238.599ZM90.469 236.837H110.52C107.901 230.37 95.489 199.591 88.699 180.329C66.442 117.19 60.632 39.516 60.03 30.651H53.109C52.507 39.516 46.697 117.19 24.438 180.329C17.648 199.591 5.23701 230.37 2.61801 236.837H22.67C24.531 232.591 36.695 206.696 56.57 206.696C76.445 206.696 88.609 232.591 90.469 236.837ZM76.397 175.989H36.742L37.012 174.896C37.117 174.469 47.567 132.024 47.98 117.566L48.005 116.709H65.134L65.159 117.565C65.572 132.025 76.022 174.469 76.127 174.896L76.397 175.989ZM38.992 174.227H74.148C72.497 167.457 64.134 132.594 63.43 118.473H49.708C49.005 132.594 40.643 167.456 38.992 174.227Z" fill="#003847"/>
</g>
<g id="Group_8">
<path id="Vector_8" d="M89.3411 172.192H23.7981C22.6781 172.192 21.6371 172.769 21.0431 173.718L18.3491 178.023H94.7911L92.0971 173.718C91.5021 172.769 90.4611 172.192 89.3411 172.192Z" fill="#005E78"/>
</g>
<g id="Group_9">
<path id="Vector_9" d="M62.3598 32.667H50.7798V19.816H62.3598V32.667ZM52.4628 30.984H60.6788V21.498H52.4628V30.984Z" fill="#003847"/>
</g>
<g id="Group_10">
<path id="Vector_10" d="M61.2148 22.462H51.9238L56.5698 0L61.2148 22.462ZM53.9898 20.779H59.1488L56.5698 8.307L53.9898 20.779Z" fill="#003847"/>
</g>
<g id="Group_11">
<path id="Vector_11" d="M56.0562 21.621L56.5702 4.15295L57.0842 21.621C57.0922 21.905 56.8692 22.142 56.5852 22.15C56.3012 22.158 56.0642 21.935 56.0562 21.651C56.0562 21.641 56.0562 21.63 56.0562 21.621Z" fill="#003847"/>
</g>
<g id="Group_12">
<path id="Vector_12" d="M60.4828 24.434H52.6568C51.1088 24.434 49.8428 23.168 49.8428 21.62C49.8428 20.072 51.1088 18.806 52.6568 18.806H60.4828C62.0308 18.806 63.2968 20.072 63.2968 21.62C63.2968 23.168 62.0308 24.434 60.4828 24.434Z" fill="#003847"/>
</g>
<g id="Group_13">
<path id="Vector_13" d="M95.9068 237.977C95.7798 237.587 82.9538 198.953 56.5698 198.953C30.1718 198.953 17.3588 237.587 17.2328 237.977L15.6318 237.459C16.1638 235.818 28.9598 197.271 56.5698 197.271C84.1788 197.271 96.9758 235.818 97.5078 237.459L95.9068 237.977Z" fill="#003847"/>
</g>
<g id="Group_14">
<path id="Vector_14" d="M23.2508 238.559C22.8558 238.559 22.5038 238.28 22.4258 237.878L20.2938 226.91C20.2148 226.504 20.4438 226.1 20.8328 225.959L30.9118 222.308V210.771C30.9118 210.321 31.2668 209.951 31.7158 209.931L44.0328 209.388V200.687C44.0328 200.393 44.1858 200.121 44.4358 199.969C44.6848 199.816 44.9978 199.805 45.2578 199.939L56.5698 205.75L67.8788 199.938C68.1418 199.805 68.4518 199.816 68.7018 199.968C68.9528 200.12 69.1049 200.392 69.1049 200.686V209.387L81.4228 209.93C81.8728 209.95 82.2269 210.32 82.2269 210.77V222.307L92.3068 225.958C92.6958 226.099 92.9249 226.503 92.8458 226.909L90.7148 237.877C90.6268 238.333 90.1848 238.636 89.7288 238.542C89.2728 238.453 88.9748 238.012 89.0638 237.556L91.0568 227.294L81.0988 223.687C80.7658 223.567 80.5449 223.25 80.5449 222.896V211.574L68.2269 211.031C67.7769 211.011 67.4228 210.641 67.4228 210.191V202.063L56.9548 207.442C56.7138 207.566 56.4268 207.566 56.1858 207.442L45.7178 202.063V210.191C45.7178 210.641 45.3628 211.011 44.9138 211.031L32.5968 211.574V222.896C32.5968 223.25 32.3748 223.567 32.0418 223.687L22.0839 227.294L24.0778 237.556C24.1668 238.011 23.8688 238.453 23.4128 238.542C23.3578 238.555 23.3038 238.559 23.2508 238.559Z" fill="#003847"/>
</g>
<g id="Group_15">
<path id="Vector_15" d="M44.8762 211.033C44.6982 211.033 44.5192 210.977 44.3672 210.861L37.4531 205.586C37.0831 205.305 37.0122 204.776 37.2942 204.407C37.5762 204.037 38.1042 203.967 38.4732 204.249L45.3872 209.524C45.7572 209.805 45.8282 210.334 45.5462 210.703C45.3792 210.919 45.1292 211.033 44.8762 211.033Z" fill="#003847"/>
</g>
<g id="Group_16">
<path id="Vector_16" d="M36.8142 217.073C36.5882 217.073 36.3632 216.983 36.1972 216.804L31.1382 211.343C30.8232 211.002 30.8432 210.47 31.1842 210.154C31.5242 209.839 32.0572 209.858 32.3732 210.2L37.4322 215.661C37.7472 216.002 37.7272 216.534 37.3862 216.85C37.2242 216.999 37.0192 217.073 36.8142 217.073Z" fill="#003847"/>
</g>
<g id="Group_17">
<path id="Vector_17" d="M31.7542 223.738C31.6102 223.738 31.4642 223.702 31.3312 223.624L24.9942 219.929C24.5932 219.695 24.4572 219.18 24.6912 218.779C24.9262 218.377 25.4402 218.241 25.8412 218.476L32.1782 222.171C32.5792 222.405 32.7152 222.92 32.4812 223.321C32.3252 223.589 32.0432 223.738 31.7542 223.738Z" fill="#003847"/>
</g>
<g id="Group_18">
<path id="Vector_18" d="M26.8148 230.819C26.6748 230.819 26.5318 230.784 26.4008 230.71L20.7048 227.481C20.3008 227.252 20.1588 226.739 20.3878 226.335C20.6168 225.932 21.1278 225.789 21.5338 226.018L27.2298 229.246C27.6338 229.475 27.7758 229.988 27.5468 230.393C27.3928 230.666 27.1078 230.819 26.8148 230.819Z" fill="#003847"/>
</g>
<g id="Group_19">
<path id="Vector_19" d="M68.2651 211.033C68.0111 211.033 67.7611 210.919 67.5951 210.702C67.3141 210.333 67.3841 209.804 67.7531 209.523L74.667 204.248C75.038 203.965 75.5651 204.039 75.8461 204.406C76.1271 204.775 76.0571 205.304 75.6881 205.585L68.7741 210.86C68.6221 210.977 68.4421 211.033 68.2651 211.033Z" fill="#003847"/>
</g>
<g id="Group_20">
<path id="Vector_20" d="M76.3259 217.073C76.1209 217.073 75.9159 216.999 75.7539 216.849C75.4129 216.533 75.3919 216.001 75.7079 215.66L80.7669 210.199C81.0849 209.857 81.6159 209.839 81.9559 210.153C82.2969 210.469 82.3179 211.001 82.0019 211.342L76.9429 216.803C76.7769 216.982 76.5519 217.073 76.3259 217.073Z" fill="#003847"/>
</g>
<g id="Group_21">
<path id="Vector_21" d="M81.3862 223.738C81.0972 223.738 80.8142 223.589 80.6592 223.321C80.4252 222.92 80.5602 222.405 80.9622 222.171L87.2992 218.476C87.7012 218.24 88.2162 218.376 88.4492 218.779C88.6832 219.18 88.5482 219.695 88.1462 219.929L81.8092 223.624C81.6752 223.702 81.5302 223.738 81.3862 223.738Z" fill="#003847"/>
</g>
<g id="Group_22">
<path id="Vector_22" d="M86.3239 230.819C86.0309 230.819 85.7469 230.666 85.5919 230.393C85.3629 229.988 85.5049 229.475 85.9089 229.246L91.6049 226.018C92.0099 225.79 92.5229 225.932 92.7509 226.335C92.9799 226.739 92.8379 227.253 92.4339 227.481L86.7379 230.71C86.6069 230.784 86.4649 230.819 86.3239 230.819Z" fill="#003847"/>
</g>
<g id="Group_23">
<path id="Vector_23" d="M91.8361 188.503H21.3051C20.6811 188.503 20.1231 188.113 19.9091 187.527L17.1641 180.02C16.8091 179.05 17.5271 178.023 18.5601 178.023H94.5811C95.6141 178.023 96.3321 179.05 95.9771 180.02L93.2321 187.527C93.0171 188.113 92.4601 188.503 91.8361 188.503Z" fill="#003847"/>
</g>
<g id="Group_24">
<path id="Vector_24" d="M56.57 118.473C56.083 118.473 55.689 118.078 55.689 117.592V34.849C55.689 34.362 56.084 33.968 56.57 33.968C57.057 33.968 57.451 34.363 57.451 34.849V117.592C57.451 118.078 57.057 118.473 56.57 118.473Z" fill="#003847"/>
</g>
<g id="Group_25">
<path id="Vector_25" d="M62.5349 34.849H50.6049C49.2079 34.849 48.0649 33.706 48.0649 32.309C48.0649 30.912 49.2079 29.769 50.6049 29.769H62.5349C63.9319 29.769 65.075 30.912 65.075 32.309C65.075 33.706 63.9319 34.849 62.5349 34.849Z" fill="#003847"/>
</g>
</g>
</svg>
