<svg xmlns="http://www.w3.org/2000/svg" width="39" height="41" fill="none" viewBox="0 0 39 41">
    <path fill="#C4C4C4" d="M13.429 11.53l-.685.249a3.226 3.226 0 0 0-2.058 2.414l-.232 1.217c-.116.604.042 1.221.433 1.695.392.474.97.746 1.584.746h5.936a2.05 2.05 0 0 0 1.576-.736c.392-.468.554-1.08.447-1.68l-.217-1.211a3.22 3.22 0 0 0-2.065-2.452l-.726-.263v-1.07c0-.03-.003-.06-.007-.088a2.91 2.91 0 0 0 .833-2.027V6.729a2.826 2.826 0 0 0-2.823-2.822 2.826 2.826 0 0 0-2.823 2.822v1.644c0 .774.32 1.48.832 1.992a.59.59 0 0 0-.005.074v1.092zm5.616 2.903l.217 1.211a.867.867 0 0 1-.855 1.02h-5.936a.865.865 0 0 1-.852-1.03l.232-1.218a2.034 2.034 0 0 1 1.297-1.522l.449-.162c.011.011.022.023.035.034.51.447 1.152.67 1.793.67s1.282-.223 1.794-.669a.595.595 0 0 0 .051-.051l.473.171a2.028 2.028 0 0 1 1.302 1.546zM13.79 6.729c0-.902.734-1.636 1.636-1.636.761 0 1.401.524 1.583 1.23a3.458 3.458 0 0 1-.235.104c-.729.292-1.318.253-1.486.135a.593.593 0 1 0-.682.971c.29.203.683.305 1.132.305.408 0 .861-.085 1.324-.252v.737c0 .454-.187.898-.514 1.219a1.659 1.659 0 0 1-.55.359 1.53 1.53 0 0 1-.604.108 1.644 1.644 0 0 1-1.604-1.636V6.73zm1.581 4.466h.054c.279 0 .551-.041.812-.121v.949a1.549 1.549 0 0 1-1.62 0v-.947c.24.072.492.114.754.12z"/>
    <path fill="#C4C4C4" stroke="#C4C4C4" stroke-width=".6" d="M6.094 36.563h18.473a.593.593 0 1 0 0-1.187H6.094a.593.593 0 1 0 0 1.187zM6.094 25.846h18.473a.593.593 0 1 0 0-1.187H6.094a.593.593 0 1 0 0 1.187zM3.902 25.849a.595.595 0 1 0 0-1.191.595.595 0 0 0 0 1.19zM6.094 31.205h18.473a.593.593 0 1 0 0-1.187H6.094a.593.593 0 1 0 0 1.187zM3.902 31.207a.595.595 0 1 0 0-1.19.595.595 0 0 0 0 1.19zM3.902 36.565a.595.595 0 1 0 0-1.19.595.595 0 0 0 0 1.19z"/>
    <path fill="#C4C4C4" stroke="#C4C4C4" stroke-width=".5" d="M37.522 9.595c-.24-.303-.466-.59-.575-.853-.118-.284-.165-.66-.214-1.059-.086-.698-.184-1.488-.736-2.04s-1.343-.65-2.04-.736c-.399-.05-.775-.096-1.06-.214-.264-.11-.55-.335-.853-.575-.417-.33-.875-.69-1.417-.855v-.18c0-1.56-1.27-2.83-2.831-2.83H3.084a2.834 2.834 0 0 0-2.831 2.83v2.29a.593.593 0 1 0 1.186 0v-2.29c0-.906.738-1.644 1.645-1.644h24.712c.907 0 1.644.738 1.644 1.645v.18c-.542.164-1 .525-1.417.854-.303.24-.589.466-.852.575-.285.118-.661.165-1.06.214-.698.086-1.488.184-2.04.736s-.65 1.342-.736 2.04c-.05.398-.096.775-.214 1.06-.11.263-.336.55-.575.852-.443.56-.945 1.197-.945 2.01 0 .814.502 1.45.945 2.01.24.303.466.59.575.853.118.285.164.661.214 1.06.086.697.184 1.488.736 2.04.551.552 1.342.65 2.04.736.208.025.41.05.596.086v8.966c0 .351.196.665.512.819a.904.904 0 0 0 .96-.102l1.261-.987v10.83c0 .907-.738 1.645-1.645 1.645H3.084a1.647 1.647 0 0 1-1.645-1.645V7.986a.593.593 0 1 0-1.186 0v29.93a2.834 2.834 0 0 0 2.831 2.831h24.712a2.834 2.834 0 0 0 2.83-2.83V27.084l1.262.988a.907.907 0 0 0 .96.102.905.905 0 0 0 .513-.82v-6.619a.593.593 0 1 0-1.186 0v6.055l-1.577-1.235a.912.912 0 0 0-1.126-.002l-1.579 1.236v-7.8l.13.102c.561.443 1.197.946 2.01.946.814 0 1.45-.503 2.011-.946.303-.24.59-.465.853-.575.285-.118.66-.164 1.06-.213.697-.087 1.488-.184 2.04-.736s.65-1.343.736-2.04c.05-.399.096-.775.214-1.06.109-.263.335-.55.575-.852.443-.561.945-1.197.945-2.01 0-.815-.502-1.45-.945-2.011zm-.931 3.285c-.28.353-.568.718-.74 1.134-.18.433-.239.908-.296 1.368-.068.557-.133 1.083-.397 1.347-.263.263-.79.328-1.347.397-.46.057-.935.116-1.368.295-.416.173-.781.461-1.134.74-.45.355-.873.69-1.275.69-.402 0-.826-.335-1.275-.69-.353-.279-.718-.567-1.134-.74a3.505 3.505 0 0 0-.15-.056c-.392-.136-.811-.189-1.218-.239-.558-.069-1.084-.134-1.348-.397-.263-.264-.328-.79-.397-1.347-.057-.46-.115-.934-.295-1.368-.172-.416-.46-.78-.74-1.134-.355-.45-.69-.873-.69-1.275 0-.401.335-.825.69-1.274.28-.354.568-.719.74-1.134.18-.434.239-.909.295-1.368.07-.558.134-1.084.398-1.347.263-.264.79-.329 1.347-.398.46-.056.934-.115 1.368-.295.416-.172.78-.46 1.134-.74.448-.354.872-.688 1.273-.69h.004c.401.002.825.336 1.273.69.353.28.718.568 1.134.74.433.18.909.239 1.368.295.557.07 1.084.134 1.347.398.264.263.329.79.398 1.347.056.46.115.934.295 1.368.172.415.46.78.74 1.134.354.449.69.873.69 1.274 0 .402-.335.826-.69 1.275z"/>
    <path fill="#C4C4C4" stroke="#C4C4C4" stroke-width=".6" d="M33.841 9.72l-2.018-.57-1.168-1.744a.748.748 0 0 0-1.245 0L28.243 9.15l-2.019.57a.748.748 0 0 0-.384 1.185l1.297 1.648-.08 2.096a.748.748 0 0 0 1.007.732l1.969-.724 1.968.724a.748.748 0 0 0 1.008-.732l-.08-2.096 1.297-1.648a.748.748 0 0 0-.385-1.184zm-1.944 2.226a.75.75 0 0 0-.16.492l.062 1.605-1.507-.555a.75.75 0 0 0-.518 0l-1.507.555.062-1.605a.751.751 0 0 0-.16-.492l-.993-1.262 1.545-.437a.75.75 0 0 0 .418-.304l.894-1.334.893 1.334a.751.751 0 0 0 .419.304l1.545.437-.993 1.263z"/>
</svg>
