
<svg width="374" height="360" viewBox="0 0 374 360" fill="none" xmlns="http://www.w3.org/2000/svg">
  <path d="M365.058 180C365.058 219.337 352.374 255.716 330.862 285.263C330.857 285.273 330.852 285.278 330.847 285.288C298.291 329.997 245.541 359.058 186.001 359.058C87.1079 359.058 6.94287 278.893 6.94287 180C6.94287 120.785 35.6829 68.2869 79.9809 35.6899C109.657 13.8469 146.322 0.941895 186 0.941895C190.91 0.941895 195.78 1.13789 200.59 1.52889C229.119 3.83089 255.757 12.8139 278.934 26.9179C297.311 38.0979 313.512 52.4879 326.758 69.3149C330.76 74.3959 334.492 79.6969 337.933 85.1989C355.122 112.695 365.058 145.187 365.058 180Z" fill="#44465A"/>
  <g opacity="0.2">
  <path d="M224.666 264.513C222.409 270.532 226.171 270.783 226.421 273.29C226.672 275.798 226.421 280.562 219.148 287.835C211.875 295.108 199.838 293.603 197.33 296.612C194.822 299.621 190.559 312.411 184.54 316.675C178.521 320.938 177.518 318.43 168.992 320.186C160.465 321.941 153.945 332.976 151.437 338.242C148.929 343.508 151.939 352.286 145.92 352.537C139.901 352.788 137.143 339.747 131.625 332.725C126.108 325.703 124.352 319.434 122.597 311.158C120.841 302.882 123.6 285.578 122.597 278.807C121.594 272.036 103.538 259.998 97.017 251.723C90.497 243.447 81.469 226.896 81.97 221.378C82.471 215.861 86.484 209.842 89.493 207.585C92.502 205.328 91.248 204.074 91.75 202.068C92.252 200.062 94.759 199.56 95.261 197.052C95.763 194.544 93.756 187.021 91.249 185.767C88.741 184.513 86.986 188.776 85.481 188.024C83.976 187.272 79.462 182.005 77.707 181.504C75.951 181.003 76.453 184.764 73.945 179.999C71.437 175.234 70.183 163.196 68.177 161.19C66.171 159.183 64.666 164.701 59.901 161.19C55.136 157.679 53.13 150.908 51.124 149.905C49.118 148.902 46.359 150.156 44.298 146.143C42.232 142.13 46.109 134.858 44.298 135.61C42.482 136.362 38.585 142.13 37.582 136.613C36.579 131.096 42.598 112.538 41.594 102.507C40.591 92.4759 44.102 81.9429 51.124 73.4159C51.124 73.4159 52.127 67.8989 53.13 64.3879C54.133 60.8769 75.7 46.8329 78.208 42.8209C79.252 41.1459 79.602 38.5169 79.979 35.6889C109.657 13.8469 146.322 0.941895 186 0.941895C190.91 0.941895 195.78 1.13789 200.59 1.52889C200.756 1.75989 200.921 1.97989 201.092 2.19589C203.264 4.95389 205.606 6.7099 211.961 9.0519C218.311 11.3889 219.815 14.3989 218.481 16.9059C217.142 19.4139 214.97 19.9149 212.462 20.0859C209.954 20.2509 207.612 18.9119 204.939 20.5879C202.261 22.2579 199.587 31.2859 196.076 31.7879C192.565 32.2899 186.38 23.7629 185.042 21.2549C183.703 18.7469 188.051 13.3949 186 10.8879C183.949 8.37989 180.363 8.88089 174.675 8.37989C168.992 7.87789 155.786 10.0549 156.288 12.2269C156.79 14.3989 175.679 11.8909 176.18 16.2399C176.682 20.5889 162.307 27.9409 159.799 27.2739C157.291 26.6069 153.946 22.2579 150.269 21.7569C146.588 21.2559 143.578 24.2649 141.266 24.6009C138.954 24.9319 136.225 22.0929 132.714 22.7599C129.203 23.4269 128.366 26.4359 126.525 27.6099C124.689 28.7789 120.341 28.7789 119.839 31.4519C119.337 34.1299 125.356 35.6349 126.861 37.3049C128.366 38.9749 125.02 44.6629 126.525 45.8319C128.03 46.9999 137.394 38.8099 139.736 36.8039C142.074 34.7979 144.08 26.1059 149.095 26.2709C154.111 26.4359 155.786 34.9629 157.456 35.8009C159.126 36.6389 162.807 33.7949 168.325 34.9629C173.842 36.1369 177.684 48.1739 178.687 51.8509C179.69 55.5269 182.032 59.2089 180.026 60.7139C178.02 62.2189 168.992 59.7109 167.823 57.3679C166.649 55.0259 173.842 51.5149 173.34 50.6819C172.838 49.8439 168.655 48.6759 166.484 49.9849C164.312 51.2939 163.309 54.0229 160.967 54.6949C158.625 55.3619 152.44 48.3399 150.77 50.3459C149.095 52.3519 152.44 58.7069 154.111 60.2119C155.786 61.7169 161.971 62.5489 162.472 64.2239C162.974 65.8939 158.294 69.5709 152.606 69.2399C146.923 68.9039 142.244 64.5549 140.067 66.3959C137.895 68.2369 139.064 73.0819 137.559 74.7569C136.054 76.4269 127.864 75.2589 123.851 79.6019C119.839 83.9509 117.998 90.4709 113.985 94.1469C109.973 97.8279 108.137 93.1439 102.785 98.3299C97.433 103.511 96.601 115.047 96.43 119.06C96.265 123.072 96.43 126.247 95.096 125.746C93.757 125.244 91.916 121.734 91.415 119.562C90.913 117.39 92.589 113.709 92.589 112.375C92.589 111.036 84.895 104.179 80.381 103.512C75.867 102.845 71.855 106.521 68.514 109.195C65.169 111.873 59.15 111.372 56.978 113.543C54.801 115.715 53.131 134.945 54.801 139.459C56.476 143.973 58.648 143.973 64 141.631C69.347 139.288 66.337 134.774 69.517 135.778C72.692 136.781 74.362 140.127 74.362 142.8C74.362 145.478 68.012 151.828 68.845 153.669C69.682 155.51 75.2 153.333 77.873 154.171C80.551 155.009 81.886 156.679 81.053 163.535C80.215 170.386 80.717 175.738 84.729 177.995C88.741 180.252 90.999 174.735 92.754 175.487C94.509 176.239 97.017 180.252 99.525 180.001C102.033 179.75 100.779 177.493 105.544 175.988C110.309 174.483 108.554 173.48 109.557 170.471C110.56 167.462 113.569 164.954 116.83 166.459C120.09 167.964 117.833 170.221 118.084 172.728C118.335 175.236 124.103 175.487 128.617 176.991C133.131 178.496 135.639 176.991 144.667 180.001C153.695 183.01 154.197 192.038 157.958 193.543C161.719 195.048 174.259 192.54 183.287 199.06C192.315 205.58 189.807 217.618 194.321 221.129C198.835 224.64 215.637 229.405 222.158 230.659C228.678 231.913 229.681 227.399 234.948 228.653C240.214 229.907 243.224 231.412 244.979 238.684C246.524 245.083 226.923 258.495 224.666 264.513Z" fill="black"/>
  <path d="M89.9119 136.281C90.0789 137.7 94.2589 138.287 99.2739 141.129C104.29 143.971 106.129 152.33 108.804 152.163C111.479 151.996 110.643 148.151 111.646 147.148C112.649 146.145 114.321 143.971 111.646 141.798C108.971 139.624 106.367 134.943 101.483 134.274C96.5989 133.605 95.7629 131.599 93.5899 131.766C91.4169 131.934 89.5779 133.438 89.9119 136.281Z" fill="black"/>
  <path d="M117.498 150.324C116.753 152.373 117.498 153.835 122.848 155.172C128.198 156.51 133.214 153.835 131.542 152.748C129.87 151.661 127.362 152.163 128.365 150.324C129.368 148.485 129.027 145.81 124.683 146.312C120.341 146.813 118.167 148.485 117.498 150.324Z" fill="black"/>
  <path d="M136.223 150.895C134.398 151.158 133.381 154.337 135.22 156.343C137.059 158.349 137.059 158.015 139.232 156.343C141.406 154.671 144.749 153.84 143.913 152.166C143.078 150.491 138.062 150.629 136.223 150.895Z" fill="black"/>
  <path d="M150.769 157.725C151.587 155.218 155.785 157.68 157.624 160.356C159.463 163.031 158.627 166.876 157.624 169.718C156.621 172.56 155.952 175.904 153.611 174.566C151.27 173.228 153.778 169.216 153.444 166.875C153.109 164.535 150.1 159.776 150.769 157.725Z" fill="black"/>
  <path d="M222.826 18.246C221.951 20.345 226.003 21.088 228.343 22.426C230.684 23.764 232.523 24.6 233.86 22.426C235.198 20.253 233.359 17.7449 231.519 17.2429C229.681 16.7409 223.662 16.24 222.826 18.246Z" fill="black"/>
  <path d="M254.425 37.8068C255.969 39.4348 258.605 39.1448 260.444 41.4848C262.283 43.8258 261.614 47.8378 263.955 49.0078C266.296 50.1778 267.968 49.0078 268.135 47.3358C268.302 45.6638 264.791 41.4848 265.126 40.6488C265.46 39.8128 269.974 41.8188 270.978 44.3268C271.981 46.8348 269.975 50.3458 272.316 51.0148C274.657 51.6838 274.155 48.6738 275.158 48.0058C276.161 47.3368 278.335 47.6718 278.167 45.6648C278 43.6588 275.325 39.3118 273.151 37.8068C270.978 36.3018 269.306 34.6308 265.628 33.7948C261.95 32.9588 258.439 33.6278 256.6 35.1318C254.759 36.6368 253.474 36.8038 254.425 37.8068Z" fill="black"/>
  <path d="M326.759 69.315C326.558 70.147 326.252 70.759 325.816 71.075C322.305 73.583 318.122 64.891 313.277 63.22C308.427 61.545 306.255 55.361 305.252 56.7C304.249 58.034 304.58 59.875 303.075 62.047C301.57 64.224 299.398 63.722 298.395 67.9C297.392 72.078 303.075 79.772 301.74 82.28C300.401 84.788 298.731 83.95 296.052 83.785C293.379 83.614 293.88 85.957 290.374 84.954C286.863 83.951 289.867 79.602 284.35 74.421C278.833 69.24 276.992 68.237 278.171 65.894C279.355 63.552 277.664 60.211 280.172 59.875C282.68 59.539 284.686 63.221 286.356 64.224C288.026 65.227 290.203 62.218 290.368 59.539C290.534 56.866 284.515 53.189 282.343 51.113C280.171 49.031 280.001 41.483 280.838 39.978C281.675 38.473 284.183 38.975 284.851 35.299C285.242 33.137 281.821 29.526 278.932 26.918C297.312 38.098 313.512 52.488 326.759 69.315Z" fill="black"/>
  <path d="M351.727 219.207C352.228 213.855 349.555 213.519 352.228 203.659C354.906 193.793 349.389 183.261 347.383 181.089C345.377 178.912 341.028 179.584 337.517 181.756C334.006 183.928 336.514 185.603 334.172 186.436C331.835 187.273 329.492 185.934 327.321 186.105C325.144 186.271 323.138 191.788 318.458 191.622C313.778 191.451 310.769 184.766 307.258 180.001C303.747 175.236 296.555 172.227 294.217 166.373C291.875 160.525 296.389 151.497 295.386 144.64C294.383 137.784 289.869 139.288 289.031 135.446C288.198 131.599 289.703 133.44 290.872 129.758C292.041 126.082 289.533 124.075 291.875 117.72C294.217 111.37 298.395 108.19 297.392 105.352C296.389 102.508 293.214 97.8279 293.043 94.4929C292.878 91.1629 296.223 91.3079 302.573 86.6229C308.928 81.9439 310.598 82.2799 315.448 83.9499C320.298 85.6199 323.308 86.4579 326.146 86.9589C328.99 87.4609 332.837 94.8189 334.005 94.4819C335.174 94.1459 335.344 91.9739 335.846 88.7989C336.057 87.4549 336.959 86.1959 337.932 85.1979C355.121 112.694 365.056 145.185 365.056 179.999C365.056 219.336 352.372 255.715 330.86 285.262C347.915 259.232 351.225 224.554 351.727 219.207Z" fill="black"/>
  </g>
  <path opacity="0.1" d="M324.718 293.223C291.884 333.396 241.935 359.058 186 359.058C87.1019 359.058 6.94189 278.898 6.94189 180C6.94189 120.786 35.6849 68.2869 79.9809 35.6919C109.661 13.8509 146.326 0.941895 186 0.941895C190.914 0.941895 195.775 1.13989 200.595 1.52489C201.927 1.62889 203.26 1.75389 204.582 1.89989C175.058 5.06489 147.887 16.0679 125.182 32.7769C84.5919 62.6549 58.2539 110.751 58.2539 165.009C58.2539 255.631 131.709 329.086 222.331 329.086C261.059 329.086 296.652 315.668 324.718 293.223Z" fill="black"/>
  <path opacity="0.7" d="M222.326 138.344C250.644 135.767 278.742 130.068 306.089 121.247C306.089 121.247 302.013 118.396 297.489 119.214C297.482 119.172 288.724 101.517 273.813 104.823C259.937 107.808 254.3 121.31 254.309 121.361C254.31 121.364 247.835 116.801 241.622 120.278C235.409 123.762 231.88 131.607 231.881 131.615C231.882 131.631 224.874 135.265 222.326 138.344Z" fill="white"/>
  <path d="M102.721 164.93C67.4648 157.056 33.0568 144.189 0.571777 126.33C0.595777 126.264 0.509782 121.285 14.1058 127.195C14.1228 127.129 26.4748 110.918 46.0658 121.681C58.2808 128.327 64.6518 143.669 64.6408 143.705C64.6368 143.721 73.9958 136.279 81.5678 140.425C89.1328 144.599 93.6638 156.888 93.6608 156.899C93.6558 156.923 101.521 161.745 102.721 164.93Z" fill="white"/>
  <path d="M373.8 147.279C341.315 165.138 306.907 178.004 271.651 185.879C271.639 185.813 271.682 180.834 286.172 176.108C286.152 176.042 299.453 150.121 319.206 146.06C331.49 143.473 337.634 154.097 337.643 154.133C337.647 154.149 346.79 139.731 353.981 138.296C361.182 136.89 365.388 145.865 365.391 145.876C365.401 145.899 372.71 144.966 373.8 147.279Z" fill="white"/>
  <path d="M200.638 67.727C176.222 68.575 151.744 67.114 127.541 63.345C127.539 63.36 134.396 59.514 137.452 59.886C140.505 60.278 149.425 45.067 160.869 46.538C172.314 47.987 178.399 60.179 178.398 60.206C178.397 60.256 192.333 57.142 200.638 67.727Z" fill="white"/>
  <path d="M165.755 347.984C141.356 346.633 117.056 342.975 93.1938 337.007C93.1908 337.022 99.9548 333.798 102.976 334.447C105.992 335.116 114.804 320.711 126.158 323.214C137.514 325.694 143.58 338.434 143.577 338.461C143.571 338.512 157.45 336.652 165.755 347.984Z" fill="white"/>
  <path opacity="0.7" d="M92.218 253.692C71.822 248.535 51.748 241.691 32.209 233.158C32.209 233.158 35.121 231.365 38.354 232.325C38.36 232.302 44.614 219.976 55.279 223.75C65.206 227.211 69.251 237.739 69.244 237.766C69.243 237.768 73.884 235.057 78.345 238.275C82.805 241.496 85.345 247.661 85.344 247.665C85.34 247.673 90.381 251.13 92.218 253.692Z" fill="white"/>
  <path opacity="0.7" d="M236.974 321.858C265.2 318.203 293.115 311.425 320.187 301.526C320.187 301.526 316.152 298.836 311.67 299.831C311.662 299.789 302.992 282.479 288.191 286.362C274.414 289.884 268.803 303.602 268.814 303.651C268.815 303.654 262.378 299.34 256.193 303.054C250.01 306.776 246.493 314.755 246.494 314.763C246.496 314.78 239.514 318.682 236.974 321.858Z" fill="white"/>
  <path d="M347.1 228.371C346.843 225.784 345.06 223.209 341.927 223.209C338.798 223.209 337.015 225.784 336.758 228.371C336.362 232.364 339.055 235.981 341.927 239.28C344.803 235.98 347.497 232.363 347.1 228.371ZM341.927 231.242C340.362 231.242 339.095 229.975 339.095 228.41C339.095 226.845 340.363 225.578 341.927 225.578C343.496 225.578 344.763 226.846 344.763 228.41C344.763 229.975 343.496 231.242 341.927 231.242Z" fill="#FFC727"/>
  <path d="M178.574 299.977C178.229 296.512 175.841 293.063 171.644 293.063C167.452 293.063 165.064 296.512 164.719 299.977C164.188 305.326 167.797 310.17 171.644 314.59C175.497 310.17 179.105 305.325 178.574 299.977ZM171.644 303.824C169.548 303.824 167.85 302.126 167.85 300.03C167.85 297.934 169.548 296.236 171.644 296.236C173.745 296.236 175.443 297.934 175.443 300.03C175.443 302.126 173.745 303.824 171.644 303.824Z" fill="#FFC727"/>
  <path d="M318.454 96.7641C318.109 93.2991 315.721 89.8501 311.524 89.8501C307.332 89.8501 304.944 93.2991 304.6 96.7641C304.069 102.113 307.677 106.957 311.524 111.377C315.377 106.958 318.985 102.113 318.454 96.7641ZM311.524 100.611C309.428 100.611 307.73 98.9131 307.73 96.8171C307.73 94.7211 309.428 93.0231 311.524 93.0231C313.625 93.0231 315.323 94.7211 315.323 96.8171C315.323 98.9131 313.626 100.611 311.524 100.611Z" fill="#FFC727"/>
  <path d="M219.93 239.906C219.673 237.319 217.89 234.744 214.757 234.744C211.628 234.744 209.845 237.319 209.588 239.906C209.192 243.899 211.886 247.516 214.757 250.815C217.633 247.516 220.326 243.899 219.93 239.906ZM214.757 242.778C213.192 242.778 211.925 241.511 211.925 239.946C211.925 238.381 213.193 237.114 214.757 237.114C216.326 237.114 217.593 238.382 217.593 239.946C217.593 241.511 216.325 242.778 214.757 242.778Z" fill="#FFC727"/>
  <path d="M112.922 189.091C112.665 186.504 110.882 183.929 107.749 183.929C104.619 183.929 102.837 186.504 102.58 189.091C102.184 193.084 104.878 196.701 107.749 200C110.625 196.701 113.318 193.084 112.922 189.091ZM107.749 191.963C106.184 191.963 104.917 190.695 104.917 189.131C104.917 187.566 106.185 186.299 107.749 186.299C109.318 186.299 110.585 187.566 110.585 189.131C110.585 190.696 109.317 191.963 107.749 191.963Z" fill="#FFC727"/>
  <path d="M53.7911 99.142C53.5341 96.555 51.7511 93.98 48.6171 93.98C45.4881 93.98 43.7051 96.555 43.4471 99.142C43.0511 103.135 45.7451 106.752 48.6171 110.051C51.4931 106.751 54.1871 103.135 53.7911 99.142ZM48.6171 102.014C47.0521 102.014 45.7851 100.746 45.7851 99.182C45.7851 97.617 47.0531 96.35 48.6171 96.35C50.1861 96.35 51.4531 97.618 51.4531 99.182C51.4531 100.746 50.1861 102.014 48.6171 102.014Z" fill="#FFC727"/>
  <path d="M124.182 52.2121C123.837 48.7471 121.449 45.2981 117.252 45.2981C113.06 45.2981 110.672 48.7471 110.327 52.2121C109.796 57.5611 113.405 62.4051 117.252 66.8251C121.104 62.4051 124.713 57.5601 124.182 52.2121ZM117.252 56.0591C115.156 56.0591 113.458 54.3611 113.458 52.2651C113.458 50.1691 115.156 48.4711 117.252 48.4711C119.353 48.4711 121.051 50.1691 121.051 52.2651C121.051 54.3611 119.353 56.0591 117.252 56.0591Z" fill="#FFC727"/>
  </svg>