<svg width="109" height="231" viewBox="0 0 109 231" fill="none" xmlns="http://www.w3.org/2000/svg">
<g id="pisatpwer">
<g id="Group">
<path id="Vector" d="M106.528 14.9401C100.486 10.7681 93.4748 7.46806 85.7289 5.39506C77.9829 3.32206 70.2609 2.67906 62.9419 3.27506L55.4438 31.2891L99.0298 42.9551L106.528 14.9401Z" fill="#DBD8D0"/>
<path id="Vector_2" d="M103.333 14.0841C98.2696 10.1741 92.3396 7.16306 85.7296 5.39406C79.1186 3.62506 72.4776 3.27105 66.1386 4.12905L58.6406 32.143L95.8346 42.0981L103.333 14.0841Z" fill="#F0ECE4"/>
<path id="Vector_3" d="M93.9439 10.514C91.8399 7.39601 88.909 6.24502 85.7299 5.39402C82.551 4.54302 79.4359 4.07601 76.0559 5.72601L68.2939 34.727L86.1819 39.515L93.9439 10.514Z" fill="#F7F5F0"/>
<g id="Group_2">
<path id="Vector_4" d="M105.887 17.336C105.64 17.27 105.399 17.16 105.176 17.006C99.1498 12.845 92.3919 9.74404 85.0879 7.79004C77.7849 5.83504 70.3818 5.14603 63.0818 5.74003C61.7648 5.84703 60.6349 4.83004 60.5579 3.46904C60.4809 2.10704 61.4849 0.917034 62.8029 0.809034C70.6289 0.172034 78.5588 0.908036 86.3698 2.99904C94.1818 5.09004 101.42 8.41204 107.881 12.874C108.969 13.625 109.244 15.158 108.497 16.299C107.904 17.205 106.843 17.592 105.887 17.336Z" fill="#CFCBC4"/>
</g>
<path id="Vector_5" d="M106.704 14.2831C106.457 14.2171 106.216 14.1071 105.993 13.9531C99.9669 9.7921 93.2079 6.6911 85.9049 4.7371C78.6019 2.7831 71.1989 2.0931 63.8989 2.6871C62.8809 2.7701 61.9809 2.1771 61.5859 1.2771C60.9249 1.7661 60.5069 2.5771 60.5579 3.4691C60.6349 4.8301 61.7649 5.8471 63.0819 5.7401C70.3819 5.1461 77.7849 5.8351 85.0879 7.7901C92.3909 9.7451 99.1499 12.8451 105.176 17.0061C105.4 17.1601 105.64 17.2701 105.887 17.3361C106.843 17.5921 107.904 17.2061 108.497 16.3001C108.986 15.5531 109.03 14.6421 108.701 13.8891C108.121 14.3161 107.387 14.4661 106.704 14.2831Z" fill="#ABA7A1"/>
<path id="Vector_6" d="M70.6439 24.714L73.3649 14.549C74.0629 11.941 72.5319 9.24404 69.9609 8.55604C67.3909 7.86804 64.7169 9.43905 64.0189 12.048L60.8789 23.779C64.1339 23.899 67.3919 24.213 70.6439 24.714Z" fill="#6E6A67"/>
<g id="Group_3">
<g id="Group_4">
<path id="Vector_7" d="M98.2857 33.8481L101.44 22.0631C102.138 19.4551 100.606 16.7581 98.0357 16.0701C95.4657 15.3821 92.7917 16.9531 92.0937 19.5621L89.3667 29.7511C92.4327 30.9501 95.4087 32.3181 98.2857 33.8481Z" fill="#6E6A67"/>
<path id="Vector_8" d="M96.9987 33.161L100.068 21.695C100.561 19.853 99.4787 17.948 97.6637 17.462C95.8487 16.976 93.9597 18.086 93.4667 19.928L90.6987 30.268C92.8457 31.151 94.9467 32.115 96.9987 33.161Z" fill="#8A8682"/>
</g>
</g>
<g id="Group_5">
<g id="Group_6">
<path id="Vector_9" d="M80.0347 26.6711C81.6017 27.0901 83.1417 27.5651 84.6697 28.0641L87.7477 16.5641C88.4457 13.9561 86.9137 11.2591 84.3437 10.5711C81.7737 9.88306 79.0997 11.4541 78.4017 14.0631L75.3237 25.5631C76.8967 25.8931 78.4677 26.2521 80.0347 26.6711Z" fill="#6E6A67"/>
<path id="Vector_10" d="M80.0348 26.6711C81.1388 26.9671 82.2318 27.2871 83.3168 27.6231L86.3748 16.1971C86.8678 14.3551 85.7858 12.4501 83.9708 11.9641C82.1558 11.4781 80.2668 12.5881 79.7738 14.4301L76.7158 25.8561C77.8238 26.1081 78.9298 26.3761 80.0348 26.6711Z" fill="#8A8682"/>
</g>
</g>
<path id="Vector_11" d="M69.233 24.4911L71.992 14.1821C72.485 12.3401 71.403 10.4351 69.588 9.94909C67.773 9.46309 65.884 10.5731 65.391 12.4151L62.334 23.8371C64.634 23.9631 66.935 24.1761 69.233 24.4911Z" fill="#8A8682"/>
</g>
<g id="Group_7">
<path id="Vector_12" d="M103.899 44.8311C96.4669 39.7001 87.8449 35.6401 78.3159 33.0901C68.7879 30.5401 59.2899 29.7501 50.2889 30.4831L41.0669 64.939L94.6769 79.2871L103.899 44.8311Z" fill="#DBD8D0"/>
<path id="Vector_13" d="M99.968 43.779C93.741 38.97 86.447 35.266 78.316 33.09C70.185 30.914 62.016 30.479 54.22 31.535L44.998 65.992L90.746 78.236L99.968 43.779Z" fill="#F0ECE4"/>
<path id="Vector_14" d="M88.4201 39.3871C85.8331 35.5521 82.2271 34.1361 78.3161 33.0901C74.4061 32.0431 70.5751 31.4691 66.4181 33.4981L56.8711 69.1681L78.8731 75.0571L88.4201 39.3871Z" fill="#F7F5F0"/>
<g id="Group_8">
<path id="Vector_15" d="M103.111 47.7781C102.807 47.6961 102.511 47.5621 102.236 47.3721C94.8237 42.2551 86.5107 38.4401 77.5287 36.0361C68.5467 33.6321 59.4397 32.7841 50.4617 33.5151C48.8417 33.6461 47.4517 32.3961 47.3567 30.7211C47.2617 29.0461 48.4977 27.5811 50.1177 27.4501C59.7437 26.6661 69.4967 27.5721 79.1047 30.1441C88.7137 32.7161 97.6157 36.8031 105.563 42.2901C106.901 43.2141 107.24 45.1001 106.321 46.5031C105.591 47.6181 104.286 48.0931 103.111 47.7781Z" fill="#CFCBC4"/>
</g>
<path id="Vector_16" d="M104.115 44.0241C103.811 43.9431 103.515 43.8081 103.24 43.6181C95.8277 38.5001 87.5147 34.6861 78.5317 32.2821C69.5497 29.8781 60.4426 29.0301 51.4646 29.7611C50.2116 29.8631 49.1046 29.1341 48.6196 28.0261C47.8066 28.6271 47.2927 29.6251 47.3547 30.7221C47.4497 32.3961 48.8387 33.6471 50.4597 33.5161C59.4377 32.7851 68.5447 33.6331 77.5267 36.0371C86.5097 38.4411 94.8227 42.2551 102.234 47.3731C102.509 47.5631 102.805 47.6971 103.109 47.7791C104.285 48.0941 105.589 47.6191 106.319 46.5041C106.92 45.5861 106.974 44.4651 106.57 43.5381C105.858 44.0641 104.955 44.2481 104.115 44.0241Z" fill="#ABA7A1"/>
<g id="Group_9">
<g id="Group_10">
<g id="Group_11">
<path id="Vector_17" d="M57.3938 54.603L60.7658 42.002C61.4338 39.505 60.0178 36.937 57.6198 36.295C55.2208 35.653 52.7118 37.17 52.0428 39.667L48.1338 54.271C51.2168 54.217 54.3048 54.315 57.3938 54.603Z" fill="#6E6A67"/>
</g>
<g id="Group_12">
<path id="Vector_18" d="M56.0467 54.5061L59.4847 41.6591C59.9567 39.8961 58.9567 38.0821 57.2627 37.6281C55.5687 37.1751 53.7967 38.2461 53.3247 40.0101L49.5137 54.2501C51.6887 54.2481 53.8677 54.3381 56.0467 54.5061Z" fill="#8A8682"/>
</g>
</g>
<g id="Group_13">
<g id="Group_14">
<path id="Vector_19" d="M70.0428 56.759L73.7838 42.78C74.4518 40.283 73.0358 37.715 70.6368 37.073C68.2378 36.431 65.7288 37.948 65.0608 40.445L61.1548 55.04C64.1248 55.45 67.0888 56.034 70.0428 56.759Z" fill="#6E6A67"/>
</g>
<g id="Group_15">
<path id="Vector_20" d="M68.7537 56.443L72.5027 42.437C72.9747 40.674 71.9747 38.86 70.2807 38.407C68.5867 37.954 66.8147 39.025 66.3417 40.789L62.4717 55.249C64.5697 55.571 66.6647 55.963 68.7537 56.443Z" fill="#8A8682"/>
</g>
</g>
<g id="Group_16">
<g id="Group_17">
<path id="Vector_21" d="M82.2196 60.6781L86.1256 46.0831C86.7936 43.5861 85.3776 41.0181 82.9796 40.3761C80.5806 39.7341 78.0716 41.2511 77.4026 43.7481L73.6616 57.7271C76.5816 58.5751 79.4416 59.5501 82.2196 60.6781Z" fill="#6E6A67"/>
</g>
<g id="Group_18">
<path id="Vector_22" d="M80.9736 60.2001L84.8436 45.7401C85.3156 43.9771 84.3156 42.1631 82.6216 41.7101C80.9276 41.2561 79.1556 42.3281 78.6836 44.0921L74.9346 58.0981C76.9846 58.7251 78.9956 59.4321 80.9736 60.2001Z" fill="#8A8682"/>
</g>
</g>
<g id="Group_19">
<g id="Group_20">
<path id="Vector_23" d="M93.8828 66.516L97.7917 51.912C98.4597 49.415 97.0438 46.847 94.6448 46.205C92.2458 45.563 89.7368 47.081 89.0688 49.577L85.6968 62.177C88.5158 63.471 91.2408 64.929 93.8828 66.516Z" fill="#6E6A67"/>
</g>
<g id="Group_21">
<path id="Vector_24" d="M92.6986 65.808L96.5096 51.569C96.9816 49.806 95.9816 47.992 94.2876 47.538C92.5936 47.085 90.8206 48.156 90.3486 49.92L86.9106 62.766C88.8826 63.709 90.8156 64.719 92.6986 65.808Z" fill="#8A8682"/>
</g>
</g>
</g>
</g>
<g id="Group_22">
<path id="Vector_25" d="M95.7846 75.1481C88.3526 70.0171 79.7306 65.9571 70.2016 63.4071C60.6736 60.8571 51.1757 60.0671 42.1747 60.8001L32.9526 95.2571L86.5627 109.605L95.7846 75.1481Z" fill="#DBD8D0"/>
<path id="Vector_26" d="M91.8538 74.0961C85.6268 69.2871 78.3328 65.5831 70.2018 63.4071C62.0708 61.2311 53.9018 60.7961 46.1058 61.8521L36.8838 96.3081L82.6318 108.552L91.8538 74.0961Z" fill="#F0ECE4"/>
<path id="Vector_27" d="M80.3058 69.7051C77.7188 65.8701 74.1128 64.4551 70.2018 63.4081C66.2918 62.3611 62.4608 61.7871 58.3038 63.8171L48.7568 99.4871L70.7588 105.376L80.3058 69.7051Z" fill="#F7F5F0"/>
<g id="Group_23">
<path id="Vector_28" d="M94.9955 78.0961C94.6915 78.0151 94.3955 77.8801 94.1205 77.6901C86.7085 72.5721 78.3955 68.7581 69.4125 66.3541C60.4305 63.9501 51.3235 63.1021 42.3455 63.8331C40.7255 63.9641 39.3355 62.7141 39.2405 61.0391C39.1455 59.3641 40.3815 57.9001 42.0015 57.7681C51.6275 56.9841 61.3805 57.8901 70.9895 60.4621C80.5985 63.0341 89.5005 67.1201 97.4475 72.6081C98.7855 73.5321 99.1245 75.4181 98.2055 76.8211C97.4755 77.9351 96.1715 78.4101 94.9955 78.0961Z" fill="#CFCBC4"/>
</g>
<path id="Vector_29" d="M96.0004 74.341C95.6964 74.26 95.4004 74.125 95.1254 73.935C87.7134 68.818 79.4004 65.004 70.4174 62.599C61.4354 60.195 52.3284 59.347 43.3504 60.078C42.0974 60.18 40.9904 59.451 40.5054 58.343C39.6924 58.944 39.1784 59.942 39.2404 61.039C39.3354 62.713 40.7244 63.964 42.3454 63.833C51.3234 63.102 60.4304 63.95 69.4124 66.354C78.3954 68.758 86.7084 72.572 94.1204 77.69C94.3954 77.88 94.6914 78.015 94.9954 78.096C96.1714 78.411 97.4754 77.936 98.2054 76.821C98.8064 75.903 98.8604 74.782 98.4574 73.855C97.7424 74.381 96.8404 74.566 96.0004 74.341Z" fill="#ABA7A1"/>
<g id="Group_24">
<g id="Group_25">
<g id="Group_26">
<path id="Vector_30" d="M49.2795 84.9201L52.6515 72.3201C53.3195 69.8231 51.9035 67.2551 49.5045 66.6131C47.1055 65.9711 44.5965 67.4881 43.9285 69.9851L40.0195 84.5891C43.1015 84.5351 46.1905 84.6331 49.2795 84.9201Z" fill="#6E6A67"/>
</g>
<g id="Group_27">
<path id="Vector_31" d="M47.9324 84.8242L51.3704 71.9772C51.8424 70.2142 50.8424 68.4002 49.1484 67.9472C47.4544 67.4942 45.6814 68.5651 45.2094 70.3291L41.3984 84.5692C43.5744 84.5652 45.7534 84.6562 47.9324 84.8242Z" fill="#8A8682"/>
</g>
</g>
<g id="Group_28">
<g id="Group_29">
<path id="Vector_32" d="M61.9275 87.0771L65.6695 73.0981C66.3375 70.6011 64.9215 68.0331 62.5225 67.3911C60.1235 66.7491 57.6145 68.2661 56.9465 70.7631L53.0405 85.3581C56.0095 85.7681 58.9745 86.3521 61.9275 87.0771Z" fill="#6E6A67"/>
</g>
<g id="Group_30">
<path id="Vector_33" d="M60.6394 86.76L64.3884 72.754C64.8604 70.991 63.8604 69.177 62.1664 68.723C60.4724 68.27 58.7004 69.341 58.2284 71.105L54.3584 85.565C56.4544 85.889 58.5494 86.28 60.6394 86.76Z" fill="#8A8682"/>
</g>
</g>
<g id="Group_31">
<g id="Group_32">
<path id="Vector_34" d="M74.1044 90.9951L78.0104 76.4001C78.6784 73.9031 77.2624 71.3351 74.8644 70.6931C72.4654 70.0511 69.9564 71.5681 69.2874 74.0651L65.5464 88.0441C68.4674 88.8931 71.3274 89.8671 74.1044 90.9951Z" fill="#6E6A67"/>
</g>
<g id="Group_33">
<path id="Vector_35" d="M72.8593 90.5181L76.7293 76.0581C77.2013 74.2951 76.2013 72.4811 74.5073 72.0271C72.8133 71.5741 71.0413 72.6451 70.5693 74.4091L66.8203 88.4151C68.8703 89.0431 70.8813 89.7491 72.8593 90.5181Z" fill="#8A8682"/>
</g>
</g>
<g id="Group_34">
<g id="Group_35">
<path id="Vector_36" d="M85.7685 96.8331L89.6775 82.2291C90.3455 79.7321 88.9295 77.1641 86.5315 76.5221C84.1325 75.8801 81.6235 77.3981 80.9545 79.8941L77.5825 92.4941C80.4005 93.7891 83.1255 95.2471 85.7685 96.8331Z" fill="#6E6A67"/>
</g>
<g id="Group_36">
<path id="Vector_37" d="M84.5844 96.1262L88.3954 81.8872C88.8674 80.1242 87.8674 78.3102 86.1734 77.8562C84.4794 77.4022 82.7074 78.4742 82.2354 80.2382L78.7974 93.0842C80.7684 94.0272 82.7004 95.0372 84.5844 96.1262Z" fill="#8A8682"/>
</g>
</g>
</g>
</g>
<g id="Group_37">
<path id="Vector_38" d="M87.7646 105.111C80.3326 99.98 71.7096 95.92 62.1816 93.37C52.6536 90.82 43.1556 90.03 34.1546 90.763L24.9326 125.219L78.5426 139.567L87.7646 105.111Z" fill="#DBD8D0"/>
<path id="Vector_39" d="M83.8347 104.059C77.6077 99.25 70.3137 95.5459 62.1827 93.3699C54.0517 91.1939 45.8827 90.7589 38.0867 91.8149L28.8647 126.272L74.6127 138.516L83.8347 104.059Z" fill="#F0ECE4"/>
<path id="Vector_40" d="M72.2858 99.667C69.6988 95.832 66.0928 94.416 62.1818 93.37C58.2718 92.323 54.4408 91.749 50.2838 93.778L40.7368 129.448L62.7388 135.337L72.2858 99.667Z" fill="#F7F5F0"/>
<g id="Group_38">
<path id="Vector_41" d="M86.9764 108.058C86.6724 107.977 86.3764 107.842 86.1014 107.652C78.6894 102.534 70.3764 98.72 61.3934 96.316C52.4114 93.912 43.3044 93.064 34.3264 93.795C32.7064 93.926 31.3164 92.676 31.2214 91.001C31.1264 89.326 32.3624 87.862 33.9824 87.73C43.6084 86.946 53.3614 87.852 62.9694 90.423C72.5784 92.995 81.4804 97.081 89.4274 102.569C90.7654 103.493 91.1044 105.379 90.1854 106.782C89.4564 107.898 88.1524 108.373 86.9764 108.058Z" fill="#CFCBC4"/>
</g>
<path id="Vector_42" d="M87.9818 104.304C87.6778 104.223 87.3818 104.088 87.1068 103.898C79.6948 98.78 71.3818 94.966 62.3988 92.562C53.4168 90.158 44.3098 89.31 35.3318 90.041C34.0788 90.143 32.9718 89.414 32.4868 88.306C31.6738 88.907 31.1598 89.905 31.2218 91.002C31.3168 92.676 32.7058 93.927 34.3268 93.796C43.3048 93.065 52.4118 93.913 61.3938 96.317C70.3768 98.721 78.6899 102.535 86.1019 107.653C86.3769 107.843 86.6729 107.977 86.9769 108.059C88.1529 108.374 89.4568 107.899 90.1868 106.784C90.7878 105.866 90.8419 104.745 90.4379 103.818C89.7239 104.344 88.8218 104.529 87.9818 104.304Z" fill="#ABA7A1"/>
<g id="Group_39">
<g id="Group_40">
<g id="Group_41">
<path id="Vector_43" d="M41.2595 114.883L44.6315 102.282C45.2995 99.785 43.8835 97.217 41.4845 96.575C39.0855 95.933 36.5765 97.4501 35.9085 99.9471L31.9995 114.551C35.0825 114.497 38.1715 114.595 41.2595 114.883Z" fill="#6E6A67"/>
</g>
<g id="Group_42">
<path id="Vector_44" d="M39.9124 114.786L43.3504 101.939C43.8224 100.176 42.8224 98.3621 41.1284 97.9081C39.4344 97.4551 37.6624 98.5261 37.1904 100.29L33.3794 114.53C35.5554 114.528 37.7334 114.618 39.9124 114.786Z" fill="#8A8682"/>
</g>
</g>
<g id="Group_43">
<g id="Group_44">
<path id="Vector_45" d="M53.9085 117.039L57.6495 103.06C58.3175 100.563 56.9015 97.9951 54.5025 97.3531C52.1035 96.7111 49.5945 98.2291 48.9265 100.725L45.0205 115.32C47.9905 115.73 50.9545 116.314 53.9085 117.039Z" fill="#6E6A67"/>
</g>
<g id="Group_45">
<path id="Vector_46" d="M52.6204 116.723L56.3694 102.717C56.8414 100.954 55.8414 99.1401 54.1474 98.6861C52.4534 98.2331 50.6814 99.3041 50.2084 101.068L46.3384 115.528C48.4354 115.851 50.5304 116.243 52.6204 116.723Z" fill="#8A8682"/>
</g>
</g>
<g id="Group_46">
<g id="Group_47">
<path id="Vector_47" d="M66.0853 120.958L69.9913 106.363C70.6593 103.866 69.2433 101.298 66.8443 100.656C64.4453 100.014 61.9363 101.532 61.2683 104.028L57.5273 118.007C60.4483 118.855 63.3073 119.83 66.0853 120.958Z" fill="#6E6A67"/>
</g>
<g id="Group_48">
<path id="Vector_48" d="M64.8403 120.48L68.7103 106.02C69.1823 104.257 68.1823 102.443 66.4883 101.99C64.7943 101.537 63.0223 102.608 62.5503 104.372L58.8013 118.378C60.8513 119.005 62.8613 119.712 64.8403 120.48Z" fill="#8A8682"/>
</g>
</g>
<g id="Group_49">
<g id="Group_50">
<path id="Vector_49" d="M77.7485 126.796L81.6575 112.192C82.3255 109.695 80.9095 107.127 78.5105 106.485C76.1115 105.843 73.6025 107.36 72.9345 109.857L69.5625 122.457C72.3815 123.751 75.1065 125.209 77.7485 126.796Z" fill="#6E6A67"/>
</g>
<g id="Group_51">
<path id="Vector_50" d="M76.5653 126.088L80.3763 111.849C80.8483 110.086 79.8483 108.272 78.1543 107.819C76.4603 107.365 74.6883 108.437 74.2163 110.201L70.7783 123.048C72.7493 123.99 74.6813 124.999 76.5653 126.088Z" fill="#8A8682"/>
</g>
</g>
</g>
</g>
<g id="Group_52">
<path id="Vector_51" d="M79.6367 135.482C72.2047 130.351 63.5817 126.291 54.0537 123.741C44.5257 121.191 35.0277 120.401 26.0267 121.134L16.8047 155.59L70.4147 169.938L79.6367 135.482Z" fill="#DBD8D0"/>
<path id="Vector_52" d="M75.7058 134.43C69.4788 129.621 62.1849 125.917 54.0539 123.741C45.9229 121.565 37.7539 121.13 29.9579 122.186L20.7358 156.643L66.4839 168.887L75.7058 134.43Z" fill="#F0ECE4"/>
<path id="Vector_53" d="M64.1579 130.039C61.5709 126.204 57.9649 124.788 54.0539 123.742C50.1439 122.696 46.3129 122.121 42.1559 124.151L32.6089 159.821L54.6109 165.71L64.1579 130.039Z" fill="#F7F5F0"/>
<g id="Group_53">
<path id="Vector_54" d="M78.8475 138.43C78.5435 138.349 78.2475 138.214 77.9725 138.024C70.5605 132.906 62.2475 129.092 53.2645 126.688C44.2825 124.284 35.1755 123.436 26.1975 124.167C24.5775 124.298 23.1875 123.048 23.0925 121.373C22.9975 119.698 24.2335 118.233 25.8535 118.102C35.4795 117.318 45.2325 118.224 54.8415 120.796C64.4505 123.368 73.3525 127.454 81.2995 132.942C82.6375 133.866 82.9765 135.752 82.0575 137.155C81.3275 138.269 80.0235 138.744 78.8475 138.43Z" fill="#CFCBC4"/>
</g>
<path id="Vector_55" d="M79.8529 134.675C79.5489 134.594 79.2529 134.459 78.9779 134.269C71.5659 129.151 63.2529 125.337 54.2699 122.933C45.2879 120.529 36.1809 119.681 27.2029 120.412C25.9499 120.514 24.8429 119.785 24.3579 118.677C23.5449 119.278 23.0309 120.276 23.0929 121.373C23.1879 123.047 24.5769 124.298 26.1979 124.167C35.1759 123.436 44.2829 124.284 53.2649 126.688C62.2479 129.092 70.5609 132.906 77.9729 138.024C78.2479 138.214 78.5439 138.349 78.8479 138.43C80.0239 138.745 81.3279 138.27 82.0579 137.155C82.6589 136.237 82.7129 135.116 82.3099 134.189C81.5949 134.715 80.6929 134.9 79.8529 134.675Z" fill="#ABA7A1"/>
<g id="Group_54">
<g id="Group_55">
<g id="Group_56">
<path id="Vector_56" d="M33.1316 145.254L36.5036 132.654C37.1716 130.157 35.7556 127.589 33.3576 126.947C30.9586 126.305 28.4496 127.822 27.7806 130.319L23.8716 144.923C26.9536 144.869 30.0426 144.967 33.1316 145.254Z" fill="#6E6A67"/>
</g>
<g id="Group_57">
<path id="Vector_57" d="M31.7845 145.157L35.2225 132.31C35.6945 130.547 34.6945 128.733 33.0005 128.28C31.3065 127.826 29.5345 128.898 29.0625 130.662L25.2515 144.902C27.4265 144.899 29.6045 144.989 31.7845 145.157Z" fill="#8A8682"/>
</g>
</g>
<g id="Group_58">
<g id="Group_59">
<path id="Vector_58" d="M45.7796 147.411L49.5216 133.432C50.1896 130.935 48.7736 128.367 46.3746 127.725C43.9756 127.083 41.4666 128.601 40.7986 131.097L36.8916 145.692C39.8616 146.102 42.8266 146.686 45.7796 147.411Z" fill="#6E6A67"/>
</g>
<g id="Group_60">
<path id="Vector_59" d="M44.4915 147.094L48.2404 133.088C48.7124 131.325 47.7125 129.511 46.0185 129.058C44.3245 128.604 42.5524 129.676 42.0804 131.44L38.2104 145.9C40.3064 146.223 42.4015 146.614 44.4915 147.094Z" fill="#8A8682"/>
</g>
</g>
<g id="Group_61">
<g id="Group_62">
<path id="Vector_60" d="M57.9565 151.329L61.8625 136.734C62.5305 134.237 61.1145 131.669 58.7155 131.027C56.3165 130.385 53.8075 131.903 53.1385 134.399L49.3975 148.378C52.3195 149.227 55.1795 150.201 57.9565 151.329Z" fill="#6E6A67"/>
</g>
<g id="Group_63">
<path id="Vector_61" d="M56.7114 150.852L60.5814 136.392C61.0534 134.629 60.0534 132.815 58.3594 132.361C56.6654 131.908 54.8924 132.979 54.4214 134.743L50.6724 148.749C52.7224 149.377 54.7334 150.083 56.7114 150.852Z" fill="#8A8682"/>
</g>
</g>
<g id="Group_64">
<g id="Group_65">
<path id="Vector_62" d="M69.6196 157.167L73.5286 142.563C74.1966 140.066 72.7806 137.498 70.3816 136.856C67.9826 136.214 65.4736 137.732 64.8046 140.228L61.4326 152.828C64.2526 154.123 66.9776 155.581 69.6196 157.167Z" fill="#6E6A67"/>
</g>
<g id="Group_66">
<path id="Vector_63" d="M68.4364 156.46L72.2474 142.221C72.7194 140.458 71.7194 138.644 70.0254 138.191C68.3314 137.738 66.5594 138.809 66.0874 140.573L62.6494 153.42C64.6204 154.361 66.5524 155.371 68.4364 156.46Z" fill="#8A8682"/>
</g>
</g>
</g>
</g>
<g id="Group_67">
<path id="Vector_64" d="M71.6167 165.445C64.1847 160.314 55.5617 156.254 46.0337 153.704C36.5057 151.154 27.0077 150.363 18.0067 151.097L8.78467 185.554L62.3947 199.902L71.6167 165.445Z" fill="#DBD8D0"/>
<path id="Vector_65" d="M67.6868 164.393C61.4598 159.584 54.1658 155.88 46.0348 153.704C37.9038 151.528 29.7348 151.093 21.9388 152.149L12.7168 186.606L58.4648 198.85L67.6868 164.393Z" fill="#F0ECE4"/>
<path id="Vector_66" d="M56.1378 160.001C53.5508 156.166 49.9448 154.75 46.0338 153.704C42.1238 152.657 38.2929 152.083 34.1359 154.113L24.5889 189.783L46.5909 195.672L56.1378 160.001Z" fill="#F7F5F0"/>
<g id="Group_68">
<path id="Vector_67" d="M70.8285 168.392C70.5245 168.311 70.2285 168.176 69.9535 167.986C62.5415 162.868 54.2285 159.054 45.2455 156.65C36.2635 154.246 27.1565 153.398 18.1785 154.129C16.5585 154.26 15.1685 153.01 15.0735 151.335C14.9785 149.66 16.2145 148.196 17.8345 148.064C27.4605 147.28 37.2135 148.186 46.8215 150.758C56.4305 153.33 65.3325 157.416 73.2795 162.904C74.6175 163.828 74.9565 165.714 74.0375 167.117C73.3085 168.232 72.0045 168.707 70.8285 168.392Z" fill="#CFCBC4"/>
</g>
<path id="Vector_68" d="M71.8339 164.637C71.5299 164.556 71.2339 164.421 70.9589 164.231C63.5469 159.113 55.2339 155.299 46.2509 152.895C37.2689 150.491 28.1619 149.643 19.1839 150.374C17.9309 150.476 16.8239 149.747 16.3389 148.639C15.5259 149.24 15.0119 150.238 15.0739 151.335C15.1689 153.009 16.5579 154.26 18.1789 154.129C27.1569 153.398 36.2639 154.246 45.2459 156.65C54.2289 159.054 62.5419 162.868 69.9539 167.986C70.2289 168.176 70.5249 168.311 70.8289 168.392C72.0049 168.707 73.3089 168.232 74.0389 167.117C74.6399 166.199 74.6939 165.078 74.2909 164.151C73.5759 164.678 72.6739 164.862 71.8339 164.637Z" fill="#ABA7A1"/>
<g id="Group_69">
<g id="Group_70">
<g id="Group_71">
<path id="Vector_69" d="M25.1115 175.217L28.4836 162.616C29.1516 160.119 27.7355 157.551 25.3365 156.909C22.9375 156.267 20.4286 157.784 19.7606 160.281L15.8516 174.885C18.9346 174.831 22.0235 174.929 25.1115 175.217Z" fill="#6E6A67"/>
</g>
<g id="Group_72">
<path id="Vector_70" d="M23.7645 175.12L27.2025 162.273C27.6745 160.51 26.6745 158.696 24.9805 158.243C23.2865 157.79 21.5145 158.861 21.0424 160.625L17.2314 174.865C19.4064 174.862 21.5855 174.952 23.7645 175.12Z" fill="#8A8682"/>
</g>
</g>
<g id="Group_73">
<g id="Group_74">
<path id="Vector_71" d="M37.7606 177.373L41.5016 163.394C42.1696 160.897 40.7536 158.329 38.3556 157.687C35.9566 157.045 33.4476 158.562 32.7786 161.059L28.8726 175.654C31.8426 176.064 34.8066 176.648 37.7606 177.373Z" fill="#6E6A67"/>
</g>
<g id="Group_75">
<path id="Vector_72" d="M36.4724 177.057L40.2214 163.051C40.6934 161.288 39.6934 159.474 37.9994 159.021C36.3054 158.568 34.5334 159.639 34.0614 161.403L30.1914 175.863C32.2874 176.185 34.3824 176.577 36.4724 177.057Z" fill="#8A8682"/>
</g>
</g>
<g id="Group_76">
<g id="Group_77">
<path id="Vector_73" d="M49.9374 181.292L53.8434 166.697C54.5114 164.2 53.0954 161.632 50.6974 160.99C48.2984 160.348 45.7894 161.866 45.1204 164.362L41.3794 178.341C44.2994 179.189 47.1594 180.164 49.9374 181.292Z" fill="#6E6A67"/>
</g>
<g id="Group_78">
<path id="Vector_74" d="M48.6923 180.814L52.5623 166.354C53.0343 164.591 52.0343 162.777 50.3403 162.323C48.6463 161.87 46.8743 162.941 46.4023 164.705L42.6533 178.71C44.7033 179.339 46.7133 180.046 48.6923 180.814Z" fill="#8A8682"/>
</g>
</g>
<g id="Group_79">
<g id="Group_80">
<path id="Vector_75" d="M61.6006 187.13L65.5096 172.526C66.1776 170.029 64.7616 167.461 62.3636 166.819C59.9646 166.177 57.4556 167.695 56.7866 170.191L53.4146 182.791C56.2336 184.085 58.9586 185.543 61.6006 187.13Z" fill="#6E6A67"/>
</g>
<g id="Group_81">
<path id="Vector_76" d="M60.4164 186.422L64.2274 172.183C64.6994 170.42 63.6994 168.606 62.0054 168.152C60.3114 167.699 58.5394 168.77 58.0674 170.534L54.6294 183.38C56.6004 184.323 58.5334 185.333 60.4164 186.422Z" fill="#8A8682"/>
</g>
</g>
</g>
</g>
<g id="Group_82">
<path id="Vector_77" d="M63.4707 195.884C56.0387 190.753 47.4167 186.693 37.8877 184.143C28.3597 181.593 18.8617 180.803 9.86066 181.535L0.638672 215.992L54.2487 230.34L63.4707 195.884Z" fill="#DBD8D0"/>
<path id="Vector_78" d="M59.5398 194.831C53.3128 190.022 46.0188 186.318 37.8878 184.142C29.7568 181.966 21.5878 181.531 13.7918 182.587L4.56982 217.044L50.3178 229.288L59.5398 194.831Z" fill="#F0ECE4"/>
<path id="Vector_79" d="M47.9919 190.44C45.4049 186.605 41.7989 185.189 37.8879 184.143C33.9769 183.097 30.1459 182.522 25.9899 184.551L16.4429 220.221L38.4449 226.11L47.9919 190.44Z" fill="#F7F5F0"/>
<g id="Group_83">
<path id="Vector_80" d="M62.6815 198.831C62.3775 198.75 62.0815 198.615 61.8065 198.425C54.3945 193.307 46.0815 189.493 37.0985 187.089C28.1165 184.685 19.0095 183.837 10.0315 184.568C8.41153 184.699 7.02152 183.449 6.92652 181.774C6.83152 180.099 8.06753 178.635 9.68753 178.503C19.3135 177.719 29.0665 178.625 38.6745 181.196C48.2835 183.768 57.1855 187.855 65.1325 193.342C66.4705 194.266 66.8095 196.152 65.8905 197.555C65.1615 198.671 63.8575 199.145 62.6815 198.831Z" fill="#CFCBC4"/>
</g>
<path id="Vector_81" d="M63.6869 195.076C63.3829 194.995 63.0869 194.86 62.8119 194.67C55.3999 189.552 47.0869 185.738 38.1039 183.334C29.1219 180.93 20.0149 180.082 11.0369 180.813C9.78394 180.915 8.67694 180.186 8.19194 179.078C7.37894 179.679 6.86492 180.677 6.92692 181.774C7.02192 183.448 8.41094 184.699 10.0319 184.568C19.0099 183.837 28.1169 184.685 37.0989 187.089C46.0819 189.493 54.3949 193.307 61.8069 198.425C62.0819 198.615 62.3779 198.749 62.6819 198.831C63.8579 199.146 65.1619 198.671 65.8919 197.556C66.4929 196.638 66.5469 195.517 66.1429 194.59C65.4289 195.116 64.5269 195.301 63.6869 195.076Z" fill="#ABA7A1"/>
<g id="Group_84">
<path id="Vector_82" d="M13.2928 219.378L19.8878 194.738C20.5558 192.241 19.1398 189.673 16.7418 189.031C14.3428 188.389 11.8338 189.906 11.1648 192.403L4.56982 217.044L13.2928 219.378Z" fill="#6E6A67"/>
<path id="Vector_83" d="M12.0106 219.036L18.6056 194.396C19.0776 192.633 18.0776 190.819 16.3836 190.365C14.6896 189.912 12.9176 190.983 12.4456 192.747L5.85059 217.387L12.0106 219.036Z" fill="#8A8682"/>
</g>
<g id="Group_85">
<path id="Vector_84" d="M25.6336 222.682L32.9046 195.517C33.5726 193.02 32.1566 190.452 29.7576 189.81C27.3586 189.168 24.8496 190.686 24.1816 193.182L16.9106 220.347L25.6336 222.682Z" fill="#6E6A67"/>
<path id="Vector_85" d="M24.3524 222.339L31.6234 195.174C32.0954 193.411 31.0954 191.597 29.4014 191.143C27.7074 190.69 25.9354 191.761 25.4634 193.525L18.1924 220.69L24.3524 222.339Z" fill="#8A8682"/>
</g>
<g id="Group_86">
<path id="Vector_86" d="M37.9755 225.985L45.2465 198.82C45.9145 196.323 44.4985 193.755 42.0995 193.113C39.7005 192.471 37.1915 193.989 36.5225 196.485L29.2515 223.65L37.9755 225.985Z" fill="#6E6A67"/>
<path id="Vector_87" d="M36.6947 225.642L43.9657 198.477C44.4377 196.714 43.4377 194.9 41.7437 194.446C40.0497 193.993 38.2777 195.064 37.8057 196.828L30.5347 223.993L36.6947 225.642Z" fill="#8A8682"/>
</g>
<g id="Group_87">
<path id="Vector_88" d="M50.3177 229.288L56.9127 204.648C57.5807 202.151 56.1647 199.583 53.7667 198.941C51.3677 198.299 48.8587 199.816 48.1897 202.313L41.5947 226.953L50.3177 229.288Z" fill="#6E6A67"/>
<path id="Vector_89" d="M49.036 228.945L55.631 204.305C56.103 202.542 55.103 200.728 53.409 200.275C51.715 199.822 49.943 200.893 49.471 202.657L42.876 227.297L49.036 228.945Z" fill="#8A8682"/>
</g>
</g>
</g>
</svg>
